M48
; DRILL file {KiCad 8.0.1} date 2024-04-12T11:27:57-0300
; FORMAT={-:-/ absolute / metric / decimal}
; #@! TF.CreationDate,2024-04-12T11:27:57-03:00
; #@! TF.GenerationSoftware,Kicad,Pcbnew,8.0.1
; #@! TF.FileFunction,Plated,1,2,PTH
FMAT,2
METRIC
; #@! TA.AperFunction,Plated,PTH,ComponentDrill
T1C0.800
; #@! TA.AperFunction,Plated,PTH,ViaDrill
T2C1.000
; #@! TA.AperFunction,Plated,PTH,ComponentDrill
T3C1.000
; #@! TA.AperFunction,Plated,PTH,ComponentDrill
T4C1.020
; #@! TA.AperFunction,Plated,PTH,ComponentDrill
T5C1.100
; #@! TA.AperFunction,Plated,PTH,ComponentDrill
T6C4.000
%
G90
G05
T1
X59.055Y-66.685
X59.055Y-74.305
X61.595Y-66.685
X61.595Y-74.305
X64.135Y-66.685
X64.135Y-74.305
X66.675Y-66.685
X66.675Y-74.305
X69.215Y-66.685
X69.215Y-74.305
X71.755Y-66.685
X71.755Y-74.305
X74.295Y-66.685
X74.295Y-74.305
X76.835Y-66.685
X76.835Y-74.305
X92.085Y-66.685
X92.085Y-74.305
X94.625Y-66.685
X94.625Y-74.305
X97.165Y-66.685
X97.165Y-74.305
X99.705Y-66.685
X99.705Y-74.305
X102.245Y-66.685
X102.245Y-74.305
X104.785Y-66.685
X104.785Y-74.305
X107.325Y-66.685
X107.325Y-74.305
X109.865Y-66.685
X109.865Y-74.305
X125.095Y-66.685
X125.095Y-74.305
X127.635Y-66.685
X127.635Y-74.305
X130.175Y-66.685
X130.175Y-74.305
X132.715Y-66.685
X132.715Y-74.305
X135.255Y-66.685
X135.255Y-74.305
X137.795Y-66.685
X137.795Y-74.305
X140.335Y-66.685
X140.335Y-74.305
X142.875Y-66.685
X142.875Y-74.305
X158.75Y-66.685
X158.75Y-74.305
X161.29Y-66.685
X161.29Y-74.305
X163.83Y-66.685
X163.83Y-74.305
X166.37Y-66.685
X166.37Y-74.305
X168.91Y-66.685
X168.91Y-74.305
X171.45Y-66.685
X171.45Y-74.305
X173.99Y-66.685
X173.99Y-74.305
X176.53Y-66.685
X176.53Y-74.305
X177.419Y-86.106
X177.419Y-93.726
T2
X81.28Y-106.68
X81.28Y-115.57
T3
X53.975Y-110.363
X53.975Y-112.903
X53.975Y-115.443
X53.992Y-99.822
X53.992Y-102.362
X53.992Y-104.902
X59.436Y-110.363
X59.436Y-112.903
X59.436Y-115.443
X59.461Y-99.822
X59.461Y-102.362
X59.461Y-104.902
X60.96Y-55.88
X63.5Y-55.88
X64.77Y-129.794
X65.024Y-110.363
X65.024Y-112.903
X65.024Y-115.443
X65.032Y-99.822
X65.032Y-102.362
X65.032Y-104.902
X66.04Y-55.88
X67.31Y-129.794
X68.58Y-55.88
X69.85Y-129.794
X70.358Y-99.822
X70.358Y-102.362
X70.358Y-104.902
X70.358Y-110.363
X70.358Y-112.903
X70.358Y-115.443
X71.12Y-55.88
X72.39Y-129.794
X74.93Y-129.794
X76.2Y-55.88
X78.74Y-55.88
X81.28Y-55.88
X83.82Y-55.88
X86.36Y-55.88
X91.025Y-97.037
X91.025Y-99.577
X91.44Y-55.875
X93.565Y-97.037
X93.565Y-99.577
X93.98Y-55.875
X96.105Y-97.037
X96.105Y-99.577
X96.52Y-55.875
X99.06Y-55.875
X101.6Y-55.875
X106.68Y-55.875
X109.22Y-55.875
X111.76Y-55.875
X114.3Y-55.875
X116.84Y-55.875
X133.98Y-55.885
X136.52Y-55.885
X139.06Y-55.885
X140.97Y-97.79
X140.97Y-100.33
X141.6Y-55.885
X143.51Y-97.79
X143.51Y-100.33
X144.14Y-55.885
X146.05Y-97.79
X146.05Y-100.33
X148.59Y-97.79
X148.59Y-100.33
X151.13Y-97.79
X151.13Y-100.33
X153.67Y-97.79
X153.67Y-100.33
X156.21Y-97.79
X156.21Y-100.33
X158.75Y-55.885
X158.75Y-97.79
X158.75Y-100.33
X160.02Y-133.858
X161.29Y-55.885
X161.29Y-97.79
X161.29Y-100.33
X162.56Y-133.858
X163.83Y-55.885
X163.83Y-97.79
X163.83Y-100.33
X165.1Y-133.858
X166.37Y-55.885
X167.64Y-133.858
X168.91Y-55.885
X170.18Y-133.858
X182.88Y-83.312
X182.88Y-85.852
X182.88Y-88.392
X182.88Y-101.6
X182.88Y-104.14
X182.88Y-106.68
X182.88Y-109.22
X182.88Y-111.76
T4
X90.932Y-109.22
X90.932Y-127.0
X91.162Y-115.57
X91.162Y-118.11
X91.162Y-120.65
X93.472Y-109.22
X93.472Y-127.0
X96.012Y-109.22
X96.012Y-127.0
X98.552Y-109.22
X98.552Y-127.0
X101.092Y-109.22
X101.092Y-127.0
X103.632Y-109.22
X103.632Y-127.0
X106.172Y-109.22
X106.172Y-127.0
X108.712Y-109.22
X108.712Y-127.0
X111.252Y-109.22
X111.252Y-127.0
X113.792Y-109.22
X113.792Y-127.0
X116.332Y-109.22
X116.332Y-127.0
X118.872Y-109.22
X118.872Y-127.0
X121.412Y-109.22
X121.412Y-127.0
X123.952Y-109.22
X123.952Y-127.0
X126.492Y-109.22
X126.492Y-127.0
X129.032Y-109.22
X129.032Y-127.0
X131.572Y-109.22
X131.572Y-127.0
X134.112Y-109.22
X134.112Y-127.0
X136.652Y-109.22
X136.652Y-127.0
X139.192Y-109.22
X139.192Y-127.0
T5
X77.193Y-94.179
X77.193Y-98.679
X83.693Y-94.179
X83.693Y-98.679
X165.585Y-107.895
X165.585Y-112.395
X172.085Y-107.895
X172.085Y-112.395
T6
X53.88Y-133.11
X53.965Y-56.856
X181.215Y-56.856
X181.215Y-133.106
M30
