%TF.GenerationSoftware,KiCad,Pcbnew,8.0.1*%
%TF.CreationDate,2024-04-12T11:28:31-03:00*%
%TF.ProjectId,PonchoRema,506f6e63-686f-4526-956d-612e6b696361,rev?*%
%TF.SameCoordinates,Original*%
%TF.FileFunction,Paste,Top*%
%TF.FilePolarity,Positive*%
%FSLAX46Y46*%
G04 Gerber Fmt 4.6, Leading zero omitted, Abs format (unit mm)*
G04 Created by KiCad (PCBNEW 8.0.1) date 2024-04-12 11:28:31*
%MOMM*%
%LPD*%
G01*
G04 APERTURE LIST*
G04 Aperture macros list*
%AMRoundRect*
0 Rectangle with rounded corners*
0 $1 Rounding radius*
0 $2 $3 $4 $5 $6 $7 $8 $9 X,Y pos of 4 corners*
0 Add a 4 corners polygon primitive as box body*
4,1,4,$2,$3,$4,$5,$6,$7,$8,$9,$2,$3,0*
0 Add four circle primitives for the rounded corners*
1,1,$1+$1,$2,$3*
1,1,$1+$1,$4,$5*
1,1,$1+$1,$6,$7*
1,1,$1+$1,$8,$9*
0 Add four rect primitives between the rounded corners*
20,1,$1+$1,$2,$3,$4,$5,0*
20,1,$1+$1,$4,$5,$6,$7,0*
20,1,$1+$1,$6,$7,$8,$9,0*
20,1,$1+$1,$8,$9,$2,$3,0*%
G04 Aperture macros list end*
%ADD10RoundRect,0.250000X0.375000X0.625000X-0.375000X0.625000X-0.375000X-0.625000X0.375000X-0.625000X0*%
%ADD11RoundRect,0.250000X0.312500X0.625000X-0.312500X0.625000X-0.312500X-0.625000X0.312500X-0.625000X0*%
%ADD12RoundRect,0.250000X-0.312500X-0.625000X0.312500X-0.625000X0.312500X0.625000X-0.312500X0.625000X0*%
%ADD13RoundRect,0.250000X0.625000X-0.312500X0.625000X0.312500X-0.625000X0.312500X-0.625000X-0.312500X0*%
%ADD14RoundRect,0.250000X-0.375000X-0.625000X0.375000X-0.625000X0.375000X0.625000X-0.375000X0.625000X0*%
%ADD15RoundRect,0.250000X-0.325000X-0.650000X0.325000X-0.650000X0.325000X0.650000X-0.325000X0.650000X0*%
%ADD16RoundRect,0.250000X-1.000000X-0.900000X1.000000X-0.900000X1.000000X0.900000X-1.000000X0.900000X0*%
G04 APERTURE END LIST*
D10*
%TO.C,D14*%
X71907500Y-80010000D03*
X69107500Y-80010000D03*
%TD*%
D11*
%TO.C,R36*%
X153285000Y-83705000D03*
X150360000Y-83705000D03*
%TD*%
%TO.C,R9*%
X97872500Y-83705000D03*
X94947500Y-83705000D03*
%TD*%
D12*
%TO.C,R53*%
X66272166Y-121767261D03*
X69197166Y-121767261D03*
%TD*%
D11*
%TO.C,R19*%
X78740000Y-87630000D03*
X75815000Y-87630000D03*
%TD*%
%TO.C,R42*%
X140335000Y-83705000D03*
X137410000Y-83705000D03*
%TD*%
D13*
%TO.C,R20*%
X78740000Y-62230000D03*
X78740000Y-59305000D03*
%TD*%
D10*
%TO.C,D0*%
X172605751Y-79895000D03*
X169805751Y-79895000D03*
%TD*%
D14*
%TO.C,D29*%
X178051000Y-125349000D03*
X180851000Y-125349000D03*
%TD*%
%TO.C,D28*%
X171638500Y-125349000D03*
X174438500Y-125349000D03*
%TD*%
D10*
%TO.C,D1*%
X166063251Y-79895000D03*
X163263251Y-79895000D03*
%TD*%
%TO.C,D7*%
X127713251Y-79895000D03*
X124913251Y-79895000D03*
%TD*%
D12*
%TO.C,R56*%
X151568500Y-121793000D03*
X154493500Y-121793000D03*
%TD*%
%TO.C,R60*%
X177988500Y-121793000D03*
X180913500Y-121793000D03*
%TD*%
D13*
%TO.C,R32*%
X170180000Y-62235000D03*
X170180000Y-59310000D03*
%TD*%
D11*
%TO.C,R21*%
X71990000Y-83705000D03*
X69065000Y-83705000D03*
%TD*%
D10*
%TO.C,D3*%
X153170751Y-79895000D03*
X150370751Y-79895000D03*
%TD*%
D11*
%TO.C,R48*%
X127827500Y-83705000D03*
X124902500Y-83705000D03*
%TD*%
D12*
%TO.C,R51*%
X52893500Y-121767261D03*
X55818500Y-121767261D03*
%TD*%
D11*
%TO.C,R13*%
X91330000Y-87630000D03*
X88405000Y-87630000D03*
%TD*%
D10*
%TO.C,D12*%
X85007500Y-80010000D03*
X82207500Y-80010000D03*
%TD*%
D14*
%TO.C,D27*%
X165224000Y-125349000D03*
X168024000Y-125349000D03*
%TD*%
D11*
%TO.C,R25*%
X65340000Y-87630000D03*
X62415000Y-87630000D03*
%TD*%
D12*
%TO.C,R52*%
X59541166Y-121767261D03*
X62466166Y-121767261D03*
%TD*%
D14*
%TO.C,D21*%
X59628500Y-125323261D03*
X62428500Y-125323261D03*
%TD*%
D12*
%TO.C,R57*%
X158426500Y-121793000D03*
X161351500Y-121793000D03*
%TD*%
D11*
%TO.C,R33*%
X159827500Y-83705000D03*
X156902500Y-83705000D03*
%TD*%
%TO.C,R4*%
X110682500Y-87630000D03*
X107757500Y-87630000D03*
%TD*%
D13*
%TO.C,R38*%
X160020000Y-62235000D03*
X160020000Y-59310000D03*
%TD*%
D14*
%TO.C,D22*%
X66315834Y-125323261D03*
X69115834Y-125323261D03*
%TD*%
D13*
%TO.C,R17*%
X86360000Y-62230000D03*
X86360000Y-59305000D03*
%TD*%
D10*
%TO.C,D8*%
X110600000Y-80010000D03*
X107800000Y-80010000D03*
%TD*%
D11*
%TO.C,R46*%
X133985000Y-87515000D03*
X131060000Y-87515000D03*
%TD*%
D10*
%TO.C,D11*%
X91247500Y-80010000D03*
X88447500Y-80010000D03*
%TD*%
D11*
%TO.C,R12*%
X91330000Y-83705000D03*
X88405000Y-83705000D03*
%TD*%
%TO.C,R49*%
X127827500Y-87515000D03*
X124902500Y-87515000D03*
%TD*%
D13*
%TO.C,R23*%
X71120000Y-62235000D03*
X71120000Y-59310000D03*
%TD*%
D12*
%TO.C,R55*%
X79111500Y-121763000D03*
X82036500Y-121763000D03*
%TD*%
%TO.C,R59*%
X171576000Y-121793000D03*
X174501000Y-121793000D03*
%TD*%
D11*
%TO.C,R10*%
X97872500Y-87630000D03*
X94947500Y-87630000D03*
%TD*%
D13*
%TO.C,R29*%
X175260000Y-62235000D03*
X175260000Y-59310000D03*
%TD*%
D11*
%TO.C,R37*%
X153285000Y-87515000D03*
X150360000Y-87515000D03*
%TD*%
%TO.C,R30*%
X166177500Y-83705000D03*
X163252500Y-83705000D03*
%TD*%
D10*
%TO.C,D5*%
X140220751Y-79895000D03*
X137420751Y-79895000D03*
%TD*%
D11*
%TO.C,R31*%
X166177500Y-87515000D03*
X163252500Y-87515000D03*
%TD*%
%TO.C,R22*%
X71990000Y-87630000D03*
X69065000Y-87630000D03*
%TD*%
D14*
%TO.C,D23*%
X72892000Y-125323261D03*
X75692000Y-125323261D03*
%TD*%
D13*
%TO.C,R26*%
X63500000Y-62230000D03*
X63500000Y-59305000D03*
%TD*%
D10*
%TO.C,D10*%
X97790000Y-80010000D03*
X94990000Y-80010000D03*
%TD*%
D11*
%TO.C,R18*%
X78740000Y-83705000D03*
X75815000Y-83705000D03*
%TD*%
D15*
%TO.C,C1*%
X145767000Y-128730000D03*
X148717000Y-128730000D03*
%TD*%
D14*
%TO.C,D20*%
X53024500Y-125323261D03*
X55824500Y-125323261D03*
%TD*%
D11*
%TO.C,R39*%
X146877500Y-83705000D03*
X143952500Y-83705000D03*
%TD*%
D13*
%TO.C,R11*%
X101600000Y-62230000D03*
X101600000Y-59305000D03*
%TD*%
D11*
%TO.C,R3*%
X110682500Y-83705000D03*
X107757500Y-83705000D03*
%TD*%
D15*
%TO.C,C2*%
X145767000Y-132715000D03*
X148717000Y-132715000D03*
%TD*%
D13*
%TO.C,R50*%
X127635000Y-62235000D03*
X127635000Y-59310000D03*
%TD*%
D10*
%TO.C,D9*%
X104317813Y-80010000D03*
X101517813Y-80010000D03*
%TD*%
%TO.C,D2*%
X159713251Y-79895000D03*
X156913251Y-79895000D03*
%TD*%
D11*
%TO.C,R27*%
X172720000Y-83705000D03*
X169795000Y-83705000D03*
%TD*%
%TO.C,R24*%
X65340000Y-83705000D03*
X62415000Y-83705000D03*
%TD*%
%TO.C,R34*%
X159827500Y-87515000D03*
X156902500Y-87515000D03*
%TD*%
%TO.C,R7*%
X104400313Y-87630000D03*
X101475313Y-87630000D03*
%TD*%
D14*
%TO.C,D24*%
X79242000Y-125349000D03*
X82042000Y-125349000D03*
%TD*%
D11*
%TO.C,R2*%
X109097000Y-132715000D03*
X106172000Y-132715000D03*
%TD*%
%TO.C,R15*%
X85090000Y-83705000D03*
X82165000Y-83705000D03*
%TD*%
D10*
%TO.C,D15*%
X65257500Y-80010000D03*
X62457500Y-80010000D03*
%TD*%
D13*
%TO.C,R44*%
X137795000Y-62235000D03*
X137795000Y-59310000D03*
%TD*%
%TO.C,R5*%
X116840000Y-62230000D03*
X116840000Y-59305000D03*
%TD*%
D11*
%TO.C,R40*%
X146877500Y-87515000D03*
X143952500Y-87515000D03*
%TD*%
%TO.C,R28*%
X172720000Y-87515000D03*
X169795000Y-87515000D03*
%TD*%
D13*
%TO.C,R47*%
X132715000Y-62235000D03*
X132715000Y-59310000D03*
%TD*%
%TO.C,R14*%
X93980000Y-62230000D03*
X93980000Y-59305000D03*
%TD*%
D11*
%TO.C,R43*%
X140335000Y-87515000D03*
X137410000Y-87515000D03*
%TD*%
%TO.C,R45*%
X133985000Y-83705000D03*
X131060000Y-83705000D03*
%TD*%
D14*
%TO.C,D25*%
X151823500Y-125349000D03*
X154623500Y-125349000D03*
%TD*%
D16*
%TO.C,D18*%
X128270000Y-99060000D03*
X132570000Y-99060000D03*
%TD*%
D11*
%TO.C,R6*%
X104400313Y-83705000D03*
X101475313Y-83705000D03*
%TD*%
D10*
%TO.C,D6*%
X133870751Y-79895000D03*
X131070751Y-79895000D03*
%TD*%
D13*
%TO.C,R35*%
X165100000Y-62235000D03*
X165100000Y-59310000D03*
%TD*%
D11*
%TO.C,R16*%
X85090000Y-87630000D03*
X82165000Y-87630000D03*
%TD*%
D13*
%TO.C,R41*%
X142875000Y-62235000D03*
X142875000Y-59310000D03*
%TD*%
D10*
%TO.C,D4*%
X146763251Y-79895000D03*
X143963251Y-79895000D03*
%TD*%
D13*
%TO.C,R8*%
X109220000Y-62230000D03*
X109220000Y-59305000D03*
%TD*%
D12*
%TO.C,R58*%
X165161500Y-121793000D03*
X168086500Y-121793000D03*
%TD*%
D10*
%TO.C,D13*%
X78657500Y-80010000D03*
X75857500Y-80010000D03*
%TD*%
%TO.C,D17*%
X115065000Y-132715000D03*
X112265000Y-132715000D03*
%TD*%
D12*
%TO.C,R54*%
X72765000Y-121767261D03*
X75690000Y-121767261D03*
%TD*%
D14*
%TO.C,D26*%
X158489000Y-125349000D03*
X161289000Y-125349000D03*
%TD*%
M02*
