%TF.GenerationSoftware,KiCad,Pcbnew,8.0.1*%
%TF.CreationDate,2024-04-12T11:28:31-03:00*%
%TF.ProjectId,PonchoRema,506f6e63-686f-4526-956d-612e6b696361,rev?*%
%TF.SameCoordinates,Original*%
%TF.FileFunction,Profile,NP*%
%FSLAX46Y46*%
G04 Gerber Fmt 4.6, Leading zero omitted, Abs format (unit mm)*
G04 Created by KiCad (PCBNEW 8.0.1) date 2024-04-12 11:28:31*
%MOMM*%
%LPD*%
G01*
G04 APERTURE LIST*
%TA.AperFunction,Profile*%
%ADD10C,0.100000*%
%TD*%
%ADD11C,0.300000*%
%TA.AperFunction,Profile*%
%ADD12C,0.150000*%
%TD*%
G04 APERTURE END LIST*
D10*
X48300000Y-138020000D02*
X186900000Y-138020000D01*
X48300000Y-51823000D02*
X48300000Y-138020000D01*
X48301639Y-51819557D02*
X186901639Y-51819557D01*
X186900000Y-51820000D02*
X186900000Y-138017000D01*
D11*
X108500472Y-145534609D02*
X107357615Y-145534641D01*
X107929043Y-145534625D02*
X107928988Y-143534625D01*
X107928988Y-143534625D02*
X107738520Y-143820345D01*
X107738520Y-143820345D02*
X107548049Y-144010826D01*
X107548049Y-144010826D02*
X107357576Y-144106069D01*
X109262327Y-143725065D02*
X109357563Y-143629824D01*
X109357563Y-143629824D02*
X109548036Y-143534580D01*
X109548036Y-143534580D02*
X110024227Y-143534567D01*
X110024227Y-143534567D02*
X110214705Y-143629800D01*
X110214705Y-143629800D02*
X110309946Y-143725036D01*
X110309946Y-143725036D02*
X110405190Y-143915509D01*
X110405190Y-143915509D02*
X110405195Y-144105985D01*
X110405195Y-144105985D02*
X110309965Y-144391702D01*
X110309965Y-144391702D02*
X109167139Y-145534591D01*
X109167139Y-145534591D02*
X110405234Y-145534557D01*
X111071846Y-143534539D02*
X112405179Y-143534502D01*
X112405179Y-143534502D02*
X111548091Y-145534526D01*
X113167134Y-145344005D02*
X113262374Y-145439240D01*
X113262374Y-145439240D02*
X113167139Y-145534481D01*
X113167139Y-145534481D02*
X113071898Y-145439246D01*
X113071898Y-145439246D02*
X113167134Y-145344005D01*
X113167134Y-145344005D02*
X113167139Y-145534481D01*
X113928989Y-143534460D02*
X115167084Y-143534426D01*
X115167084Y-143534426D02*
X114500438Y-144296349D01*
X114500438Y-144296349D02*
X114786153Y-144296341D01*
X114786153Y-144296341D02*
X114976631Y-144391574D01*
X114976631Y-144391574D02*
X115071872Y-144486810D01*
X115071872Y-144486810D02*
X115167115Y-144677283D01*
X115167115Y-144677283D02*
X115167129Y-145153474D01*
X115167129Y-145153474D02*
X115071896Y-145343952D01*
X115071896Y-145343952D02*
X114976660Y-145439193D01*
X114976660Y-145439193D02*
X114786187Y-145534437D01*
X114786187Y-145534437D02*
X114214758Y-145534452D01*
X114214758Y-145534452D02*
X114024279Y-145439219D01*
X114024279Y-145439219D02*
X113929039Y-145343984D01*
X115833751Y-143534408D02*
X117071846Y-143534374D01*
X117071846Y-143534374D02*
X116405200Y-144296297D01*
X116405200Y-144296297D02*
X116690915Y-144296289D01*
X116690915Y-144296289D02*
X116881393Y-144391522D01*
X116881393Y-144391522D02*
X116976634Y-144486757D01*
X116976634Y-144486757D02*
X117071877Y-144677231D01*
X117071877Y-144677231D02*
X117071891Y-145153421D01*
X117071891Y-145153421D02*
X116976658Y-145343900D01*
X116976658Y-145343900D02*
X116881422Y-145439141D01*
X116881422Y-145439141D02*
X116690949Y-145534384D01*
X116690949Y-145534384D02*
X116119520Y-145534400D01*
X116119520Y-145534400D02*
X115929041Y-145439167D01*
X115929041Y-145439167D02*
X115833801Y-145343932D01*
X118881370Y-143534324D02*
X117928989Y-143534350D01*
X117928989Y-143534350D02*
X117833777Y-144486734D01*
X117833777Y-144486734D02*
X117929013Y-144391493D01*
X117929013Y-144391493D02*
X118119486Y-144296250D01*
X118119486Y-144296250D02*
X118595677Y-144296237D01*
X118595677Y-144296237D02*
X118786155Y-144391469D01*
X118786155Y-144391469D02*
X118881396Y-144486705D01*
X118881396Y-144486705D02*
X118976639Y-144677178D01*
X118976639Y-144677178D02*
X118976653Y-145153369D01*
X118976653Y-145153369D02*
X118881420Y-145343848D01*
X118881420Y-145343848D02*
X118786184Y-145439088D01*
X118786184Y-145439088D02*
X118595711Y-145534332D01*
X118595711Y-145534332D02*
X118119520Y-145534345D01*
X118119520Y-145534345D02*
X117929041Y-145439112D01*
X117929041Y-145439112D02*
X117833801Y-145343877D01*
X120786132Y-143534272D02*
X119833751Y-143534298D01*
X119833751Y-143534298D02*
X119738539Y-144486681D01*
X119738539Y-144486681D02*
X119833775Y-144391441D01*
X119833775Y-144391441D02*
X120024248Y-144296197D01*
X120024248Y-144296197D02*
X120500439Y-144296184D01*
X120500439Y-144296184D02*
X120690917Y-144391417D01*
X120690917Y-144391417D02*
X120786158Y-144486653D01*
X120786158Y-144486653D02*
X120881401Y-144677126D01*
X120881401Y-144677126D02*
X120881415Y-145153317D01*
X120881415Y-145153317D02*
X120786182Y-145343795D01*
X120786182Y-145343795D02*
X120690946Y-145439036D01*
X120690946Y-145439036D02*
X120500473Y-145534279D01*
X120500473Y-145534279D02*
X120024282Y-145534293D01*
X120024282Y-145534293D02*
X119833803Y-145439060D01*
X119833803Y-145439060D02*
X119738563Y-145343824D01*
X123262378Y-145534204D02*
X123262341Y-144200870D01*
X123262347Y-144391346D02*
X123357582Y-144296106D01*
X123357582Y-144296106D02*
X123548056Y-144200862D01*
X123548056Y-144200862D02*
X123833770Y-144200854D01*
X123833770Y-144200854D02*
X124024249Y-144296087D01*
X124024249Y-144296087D02*
X124119492Y-144486561D01*
X124119492Y-144486561D02*
X124119521Y-145534180D01*
X124119492Y-144486561D02*
X124214725Y-144296082D01*
X124214725Y-144296082D02*
X124405198Y-144200839D01*
X124405198Y-144200839D02*
X124690913Y-144200831D01*
X124690913Y-144200831D02*
X124881392Y-144296064D01*
X124881392Y-144296064D02*
X124976635Y-144486537D01*
X124976635Y-144486537D02*
X124976664Y-145534156D01*
X125929045Y-145534130D02*
X125929008Y-144200797D01*
X125929014Y-144391273D02*
X126024249Y-144296032D01*
X126024249Y-144296032D02*
X126214723Y-144200789D01*
X126214723Y-144200789D02*
X126500437Y-144200781D01*
X126500437Y-144200781D02*
X126690916Y-144296014D01*
X126690916Y-144296014D02*
X126786159Y-144486488D01*
X126786159Y-144486488D02*
X126786188Y-145534107D01*
X126786159Y-144486488D02*
X126881392Y-144296009D01*
X126881392Y-144296009D02*
X127071865Y-144200765D01*
X127071865Y-144200765D02*
X127357580Y-144200758D01*
X127357580Y-144200758D02*
X127548059Y-144295990D01*
X127548059Y-144295990D02*
X127643302Y-144486464D01*
X127643302Y-144486464D02*
X127643331Y-145534083D01*
D12*
X53880014Y-133610000D02*
X53880396Y-147512893D01*
X181215514Y-133606500D02*
X181215896Y-147509393D01*
X53880380Y-146926473D02*
X181215880Y-146922973D01*
X53880380Y-146926473D02*
X181215880Y-146922973D01*
X53880380Y-146926473D02*
X55006868Y-146340021D01*
X53880380Y-146926473D02*
X55006900Y-147512863D01*
X181215880Y-146922973D02*
X180089392Y-147509425D01*
X181215880Y-146922973D02*
X180089360Y-146336583D01*
D11*
X194729638Y-104314833D02*
X194729638Y-102981500D01*
X194729638Y-102981500D02*
X196729638Y-103838643D01*
X194729638Y-101362452D02*
X194729638Y-101743405D01*
X194729638Y-101743405D02*
X194824876Y-101933881D01*
X194824876Y-101933881D02*
X194920114Y-102029119D01*
X194920114Y-102029119D02*
X195205828Y-102219595D01*
X195205828Y-102219595D02*
X195586780Y-102314833D01*
X195586780Y-102314833D02*
X196348685Y-102314833D01*
X196348685Y-102314833D02*
X196539161Y-102219595D01*
X196539161Y-102219595D02*
X196634400Y-102124357D01*
X196634400Y-102124357D02*
X196729638Y-101933881D01*
X196729638Y-101933881D02*
X196729638Y-101552928D01*
X196729638Y-101552928D02*
X196634400Y-101362452D01*
X196634400Y-101362452D02*
X196539161Y-101267214D01*
X196539161Y-101267214D02*
X196348685Y-101171976D01*
X196348685Y-101171976D02*
X195872495Y-101171976D01*
X195872495Y-101171976D02*
X195682019Y-101267214D01*
X195682019Y-101267214D02*
X195586780Y-101362452D01*
X195586780Y-101362452D02*
X195491542Y-101552928D01*
X195491542Y-101552928D02*
X195491542Y-101933881D01*
X195491542Y-101933881D02*
X195586780Y-102124357D01*
X195586780Y-102124357D02*
X195682019Y-102219595D01*
X195682019Y-102219595D02*
X195872495Y-102314833D01*
X196539161Y-100314833D02*
X196634400Y-100219595D01*
X196634400Y-100219595D02*
X196729638Y-100314833D01*
X196729638Y-100314833D02*
X196634400Y-100410071D01*
X196634400Y-100410071D02*
X196539161Y-100314833D01*
X196539161Y-100314833D02*
X196729638Y-100314833D01*
X194920114Y-99457690D02*
X194824876Y-99362452D01*
X194824876Y-99362452D02*
X194729638Y-99171976D01*
X194729638Y-99171976D02*
X194729638Y-98695785D01*
X194729638Y-98695785D02*
X194824876Y-98505309D01*
X194824876Y-98505309D02*
X194920114Y-98410071D01*
X194920114Y-98410071D02*
X195110590Y-98314833D01*
X195110590Y-98314833D02*
X195301066Y-98314833D01*
X195301066Y-98314833D02*
X195586780Y-98410071D01*
X195586780Y-98410071D02*
X196729638Y-99552928D01*
X196729638Y-99552928D02*
X196729638Y-98314833D01*
X194729638Y-96505309D02*
X194729638Y-97457690D01*
X194729638Y-97457690D02*
X195682019Y-97552928D01*
X195682019Y-97552928D02*
X195586780Y-97457690D01*
X195586780Y-97457690D02*
X195491542Y-97267214D01*
X195491542Y-97267214D02*
X195491542Y-96791023D01*
X195491542Y-96791023D02*
X195586780Y-96600547D01*
X195586780Y-96600547D02*
X195682019Y-96505309D01*
X195682019Y-96505309D02*
X195872495Y-96410071D01*
X195872495Y-96410071D02*
X196348685Y-96410071D01*
X196348685Y-96410071D02*
X196539161Y-96505309D01*
X196539161Y-96505309D02*
X196634400Y-96600547D01*
X196634400Y-96600547D02*
X196729638Y-96791023D01*
X196729638Y-96791023D02*
X196729638Y-97267214D01*
X196729638Y-97267214D02*
X196634400Y-97457690D01*
X196634400Y-97457690D02*
X196539161Y-97552928D01*
X194729638Y-95171976D02*
X194729638Y-94981499D01*
X194729638Y-94981499D02*
X194824876Y-94791023D01*
X194824876Y-94791023D02*
X194920114Y-94695785D01*
X194920114Y-94695785D02*
X195110590Y-94600547D01*
X195110590Y-94600547D02*
X195491542Y-94505309D01*
X195491542Y-94505309D02*
X195967733Y-94505309D01*
X195967733Y-94505309D02*
X196348685Y-94600547D01*
X196348685Y-94600547D02*
X196539161Y-94695785D01*
X196539161Y-94695785D02*
X196634400Y-94791023D01*
X196634400Y-94791023D02*
X196729638Y-94981499D01*
X196729638Y-94981499D02*
X196729638Y-95171976D01*
X196729638Y-95171976D02*
X196634400Y-95362452D01*
X196634400Y-95362452D02*
X196539161Y-95457690D01*
X196539161Y-95457690D02*
X196348685Y-95552928D01*
X196348685Y-95552928D02*
X195967733Y-95648166D01*
X195967733Y-95648166D02*
X195491542Y-95648166D01*
X195491542Y-95648166D02*
X195110590Y-95552928D01*
X195110590Y-95552928D02*
X194920114Y-95457690D01*
X194920114Y-95457690D02*
X194824876Y-95362452D01*
X194824876Y-95362452D02*
X194729638Y-95171976D01*
X194729638Y-93267214D02*
X194729638Y-93076737D01*
X194729638Y-93076737D02*
X194824876Y-92886261D01*
X194824876Y-92886261D02*
X194920114Y-92791023D01*
X194920114Y-92791023D02*
X195110590Y-92695785D01*
X195110590Y-92695785D02*
X195491542Y-92600547D01*
X195491542Y-92600547D02*
X195967733Y-92600547D01*
X195967733Y-92600547D02*
X196348685Y-92695785D01*
X196348685Y-92695785D02*
X196539161Y-92791023D01*
X196539161Y-92791023D02*
X196634400Y-92886261D01*
X196634400Y-92886261D02*
X196729638Y-93076737D01*
X196729638Y-93076737D02*
X196729638Y-93267214D01*
X196729638Y-93267214D02*
X196634400Y-93457690D01*
X196634400Y-93457690D02*
X196539161Y-93552928D01*
X196539161Y-93552928D02*
X196348685Y-93648166D01*
X196348685Y-93648166D02*
X195967733Y-93743404D01*
X195967733Y-93743404D02*
X195491542Y-93743404D01*
X195491542Y-93743404D02*
X195110590Y-93648166D01*
X195110590Y-93648166D02*
X194920114Y-93552928D01*
X194920114Y-93552928D02*
X194824876Y-93457690D01*
X194824876Y-93457690D02*
X194729638Y-93267214D01*
X196729638Y-90219594D02*
X195396304Y-90219594D01*
X195586780Y-90219594D02*
X195491542Y-90124356D01*
X195491542Y-90124356D02*
X195396304Y-89933880D01*
X195396304Y-89933880D02*
X195396304Y-89648165D01*
X195396304Y-89648165D02*
X195491542Y-89457689D01*
X195491542Y-89457689D02*
X195682019Y-89362451D01*
X195682019Y-89362451D02*
X196729638Y-89362451D01*
X195682019Y-89362451D02*
X195491542Y-89267213D01*
X195491542Y-89267213D02*
X195396304Y-89076737D01*
X195396304Y-89076737D02*
X195396304Y-88791023D01*
X195396304Y-88791023D02*
X195491542Y-88600546D01*
X195491542Y-88600546D02*
X195682019Y-88505308D01*
X195682019Y-88505308D02*
X196729638Y-88505308D01*
X196729638Y-87552927D02*
X195396304Y-87552927D01*
X195586780Y-87552927D02*
X195491542Y-87457689D01*
X195491542Y-87457689D02*
X195396304Y-87267213D01*
X195396304Y-87267213D02*
X195396304Y-86981498D01*
X195396304Y-86981498D02*
X195491542Y-86791022D01*
X195491542Y-86791022D02*
X195682019Y-86695784D01*
X195682019Y-86695784D02*
X196729638Y-86695784D01*
X195682019Y-86695784D02*
X195491542Y-86600546D01*
X195491542Y-86600546D02*
X195396304Y-86410070D01*
X195396304Y-86410070D02*
X195396304Y-86124356D01*
X195396304Y-86124356D02*
X195491542Y-85933879D01*
X195491542Y-85933879D02*
X195682019Y-85838641D01*
X195682019Y-85838641D02*
X196729638Y-85838641D01*
D12*
X181715500Y-56856500D02*
X198706420Y-56856500D01*
X181715500Y-133106500D02*
X198706420Y-133106500D01*
X198120000Y-56856500D02*
X198120000Y-133106500D01*
X198120000Y-56856500D02*
X198120000Y-133106500D01*
X198120000Y-56856500D02*
X198706421Y-57983004D01*
X198120000Y-56856500D02*
X197533579Y-57983004D01*
X198120000Y-133106500D02*
X197533579Y-131979996D01*
X198120000Y-133106500D02*
X198706421Y-131979996D01*
D11*
X108554019Y-41789638D02*
X107411162Y-41789638D01*
X107982590Y-41789638D02*
X107982590Y-39789638D01*
X107982590Y-39789638D02*
X107792114Y-40075352D01*
X107792114Y-40075352D02*
X107601638Y-40265828D01*
X107601638Y-40265828D02*
X107411162Y-40361066D01*
X109220686Y-39789638D02*
X110458781Y-39789638D01*
X110458781Y-39789638D02*
X109792114Y-40551542D01*
X109792114Y-40551542D02*
X110077829Y-40551542D01*
X110077829Y-40551542D02*
X110268305Y-40646780D01*
X110268305Y-40646780D02*
X110363543Y-40742019D01*
X110363543Y-40742019D02*
X110458781Y-40932495D01*
X110458781Y-40932495D02*
X110458781Y-41408685D01*
X110458781Y-41408685D02*
X110363543Y-41599161D01*
X110363543Y-41599161D02*
X110268305Y-41694400D01*
X110268305Y-41694400D02*
X110077829Y-41789638D01*
X110077829Y-41789638D02*
X109506400Y-41789638D01*
X109506400Y-41789638D02*
X109315924Y-41694400D01*
X109315924Y-41694400D02*
X109220686Y-41599161D01*
X111601638Y-40646780D02*
X111411162Y-40551542D01*
X111411162Y-40551542D02*
X111315924Y-40456304D01*
X111315924Y-40456304D02*
X111220686Y-40265828D01*
X111220686Y-40265828D02*
X111220686Y-40170590D01*
X111220686Y-40170590D02*
X111315924Y-39980114D01*
X111315924Y-39980114D02*
X111411162Y-39884876D01*
X111411162Y-39884876D02*
X111601638Y-39789638D01*
X111601638Y-39789638D02*
X111982591Y-39789638D01*
X111982591Y-39789638D02*
X112173067Y-39884876D01*
X112173067Y-39884876D02*
X112268305Y-39980114D01*
X112268305Y-39980114D02*
X112363543Y-40170590D01*
X112363543Y-40170590D02*
X112363543Y-40265828D01*
X112363543Y-40265828D02*
X112268305Y-40456304D01*
X112268305Y-40456304D02*
X112173067Y-40551542D01*
X112173067Y-40551542D02*
X111982591Y-40646780D01*
X111982591Y-40646780D02*
X111601638Y-40646780D01*
X111601638Y-40646780D02*
X111411162Y-40742019D01*
X111411162Y-40742019D02*
X111315924Y-40837257D01*
X111315924Y-40837257D02*
X111220686Y-41027733D01*
X111220686Y-41027733D02*
X111220686Y-41408685D01*
X111220686Y-41408685D02*
X111315924Y-41599161D01*
X111315924Y-41599161D02*
X111411162Y-41694400D01*
X111411162Y-41694400D02*
X111601638Y-41789638D01*
X111601638Y-41789638D02*
X111982591Y-41789638D01*
X111982591Y-41789638D02*
X112173067Y-41694400D01*
X112173067Y-41694400D02*
X112268305Y-41599161D01*
X112268305Y-41599161D02*
X112363543Y-41408685D01*
X112363543Y-41408685D02*
X112363543Y-41027733D01*
X112363543Y-41027733D02*
X112268305Y-40837257D01*
X112268305Y-40837257D02*
X112173067Y-40742019D01*
X112173067Y-40742019D02*
X111982591Y-40646780D01*
X113220686Y-41599161D02*
X113315924Y-41694400D01*
X113315924Y-41694400D02*
X113220686Y-41789638D01*
X113220686Y-41789638D02*
X113125448Y-41694400D01*
X113125448Y-41694400D02*
X113220686Y-41599161D01*
X113220686Y-41599161D02*
X113220686Y-41789638D01*
X115030210Y-39789638D02*
X114649257Y-39789638D01*
X114649257Y-39789638D02*
X114458781Y-39884876D01*
X114458781Y-39884876D02*
X114363543Y-39980114D01*
X114363543Y-39980114D02*
X114173067Y-40265828D01*
X114173067Y-40265828D02*
X114077829Y-40646780D01*
X114077829Y-40646780D02*
X114077829Y-41408685D01*
X114077829Y-41408685D02*
X114173067Y-41599161D01*
X114173067Y-41599161D02*
X114268305Y-41694400D01*
X114268305Y-41694400D02*
X114458781Y-41789638D01*
X114458781Y-41789638D02*
X114839734Y-41789638D01*
X114839734Y-41789638D02*
X115030210Y-41694400D01*
X115030210Y-41694400D02*
X115125448Y-41599161D01*
X115125448Y-41599161D02*
X115220686Y-41408685D01*
X115220686Y-41408685D02*
X115220686Y-40932495D01*
X115220686Y-40932495D02*
X115125448Y-40742019D01*
X115125448Y-40742019D02*
X115030210Y-40646780D01*
X115030210Y-40646780D02*
X114839734Y-40551542D01*
X114839734Y-40551542D02*
X114458781Y-40551542D01*
X114458781Y-40551542D02*
X114268305Y-40646780D01*
X114268305Y-40646780D02*
X114173067Y-40742019D01*
X114173067Y-40742019D02*
X114077829Y-40932495D01*
X116458781Y-39789638D02*
X116649258Y-39789638D01*
X116649258Y-39789638D02*
X116839734Y-39884876D01*
X116839734Y-39884876D02*
X116934972Y-39980114D01*
X116934972Y-39980114D02*
X117030210Y-40170590D01*
X117030210Y-40170590D02*
X117125448Y-40551542D01*
X117125448Y-40551542D02*
X117125448Y-41027733D01*
X117125448Y-41027733D02*
X117030210Y-41408685D01*
X117030210Y-41408685D02*
X116934972Y-41599161D01*
X116934972Y-41599161D02*
X116839734Y-41694400D01*
X116839734Y-41694400D02*
X116649258Y-41789638D01*
X116649258Y-41789638D02*
X116458781Y-41789638D01*
X116458781Y-41789638D02*
X116268305Y-41694400D01*
X116268305Y-41694400D02*
X116173067Y-41599161D01*
X116173067Y-41599161D02*
X116077829Y-41408685D01*
X116077829Y-41408685D02*
X115982591Y-41027733D01*
X115982591Y-41027733D02*
X115982591Y-40551542D01*
X115982591Y-40551542D02*
X116077829Y-40170590D01*
X116077829Y-40170590D02*
X116173067Y-39980114D01*
X116173067Y-39980114D02*
X116268305Y-39884876D01*
X116268305Y-39884876D02*
X116458781Y-39789638D01*
X118363543Y-39789638D02*
X118554020Y-39789638D01*
X118554020Y-39789638D02*
X118744496Y-39884876D01*
X118744496Y-39884876D02*
X118839734Y-39980114D01*
X118839734Y-39980114D02*
X118934972Y-40170590D01*
X118934972Y-40170590D02*
X119030210Y-40551542D01*
X119030210Y-40551542D02*
X119030210Y-41027733D01*
X119030210Y-41027733D02*
X118934972Y-41408685D01*
X118934972Y-41408685D02*
X118839734Y-41599161D01*
X118839734Y-41599161D02*
X118744496Y-41694400D01*
X118744496Y-41694400D02*
X118554020Y-41789638D01*
X118554020Y-41789638D02*
X118363543Y-41789638D01*
X118363543Y-41789638D02*
X118173067Y-41694400D01*
X118173067Y-41694400D02*
X118077829Y-41599161D01*
X118077829Y-41599161D02*
X117982591Y-41408685D01*
X117982591Y-41408685D02*
X117887353Y-41027733D01*
X117887353Y-41027733D02*
X117887353Y-40551542D01*
X117887353Y-40551542D02*
X117982591Y-40170590D01*
X117982591Y-40170590D02*
X118077829Y-39980114D01*
X118077829Y-39980114D02*
X118173067Y-39884876D01*
X118173067Y-39884876D02*
X118363543Y-39789638D01*
X120268305Y-39789638D02*
X120458782Y-39789638D01*
X120458782Y-39789638D02*
X120649258Y-39884876D01*
X120649258Y-39884876D02*
X120744496Y-39980114D01*
X120744496Y-39980114D02*
X120839734Y-40170590D01*
X120839734Y-40170590D02*
X120934972Y-40551542D01*
X120934972Y-40551542D02*
X120934972Y-41027733D01*
X120934972Y-41027733D02*
X120839734Y-41408685D01*
X120839734Y-41408685D02*
X120744496Y-41599161D01*
X120744496Y-41599161D02*
X120649258Y-41694400D01*
X120649258Y-41694400D02*
X120458782Y-41789638D01*
X120458782Y-41789638D02*
X120268305Y-41789638D01*
X120268305Y-41789638D02*
X120077829Y-41694400D01*
X120077829Y-41694400D02*
X119982591Y-41599161D01*
X119982591Y-41599161D02*
X119887353Y-41408685D01*
X119887353Y-41408685D02*
X119792115Y-41027733D01*
X119792115Y-41027733D02*
X119792115Y-40551542D01*
X119792115Y-40551542D02*
X119887353Y-40170590D01*
X119887353Y-40170590D02*
X119982591Y-39980114D01*
X119982591Y-39980114D02*
X120077829Y-39884876D01*
X120077829Y-39884876D02*
X120268305Y-39789638D01*
X123315925Y-41789638D02*
X123315925Y-40456304D01*
X123315925Y-40646780D02*
X123411163Y-40551542D01*
X123411163Y-40551542D02*
X123601639Y-40456304D01*
X123601639Y-40456304D02*
X123887354Y-40456304D01*
X123887354Y-40456304D02*
X124077830Y-40551542D01*
X124077830Y-40551542D02*
X124173068Y-40742019D01*
X124173068Y-40742019D02*
X124173068Y-41789638D01*
X124173068Y-40742019D02*
X124268306Y-40551542D01*
X124268306Y-40551542D02*
X124458782Y-40456304D01*
X124458782Y-40456304D02*
X124744496Y-40456304D01*
X124744496Y-40456304D02*
X124934973Y-40551542D01*
X124934973Y-40551542D02*
X125030211Y-40742019D01*
X125030211Y-40742019D02*
X125030211Y-41789638D01*
X125982592Y-41789638D02*
X125982592Y-40456304D01*
X125982592Y-40646780D02*
X126077830Y-40551542D01*
X126077830Y-40551542D02*
X126268306Y-40456304D01*
X126268306Y-40456304D02*
X126554021Y-40456304D01*
X126554021Y-40456304D02*
X126744497Y-40551542D01*
X126744497Y-40551542D02*
X126839735Y-40742019D01*
X126839735Y-40742019D02*
X126839735Y-41789638D01*
X126839735Y-40742019D02*
X126934973Y-40551542D01*
X126934973Y-40551542D02*
X127125449Y-40456304D01*
X127125449Y-40456304D02*
X127411163Y-40456304D01*
X127411163Y-40456304D02*
X127601640Y-40551542D01*
X127601640Y-40551542D02*
X127696878Y-40742019D01*
X127696878Y-40742019D02*
X127696878Y-41789638D01*
D12*
X48301639Y-51319557D02*
X48301639Y-42593580D01*
X186901639Y-51319557D02*
X186901639Y-42593580D01*
X48301639Y-43180000D02*
X186901639Y-43180000D01*
X48301639Y-43180000D02*
X186901639Y-43180000D01*
X48301639Y-43180000D02*
X49428143Y-42593579D01*
X48301639Y-43180000D02*
X49428143Y-43766421D01*
X186901639Y-43180000D02*
X185775135Y-43766421D01*
X186901639Y-43180000D02*
X185775135Y-42593579D01*
D11*
X35566780Y-103778643D02*
X35471542Y-103969119D01*
X35471542Y-103969119D02*
X35376304Y-104064357D01*
X35376304Y-104064357D02*
X35185828Y-104159595D01*
X35185828Y-104159595D02*
X35090590Y-104159595D01*
X35090590Y-104159595D02*
X34900114Y-104064357D01*
X34900114Y-104064357D02*
X34804876Y-103969119D01*
X34804876Y-103969119D02*
X34709638Y-103778643D01*
X34709638Y-103778643D02*
X34709638Y-103397690D01*
X34709638Y-103397690D02*
X34804876Y-103207214D01*
X34804876Y-103207214D02*
X34900114Y-103111976D01*
X34900114Y-103111976D02*
X35090590Y-103016738D01*
X35090590Y-103016738D02*
X35185828Y-103016738D01*
X35185828Y-103016738D02*
X35376304Y-103111976D01*
X35376304Y-103111976D02*
X35471542Y-103207214D01*
X35471542Y-103207214D02*
X35566780Y-103397690D01*
X35566780Y-103397690D02*
X35566780Y-103778643D01*
X35566780Y-103778643D02*
X35662019Y-103969119D01*
X35662019Y-103969119D02*
X35757257Y-104064357D01*
X35757257Y-104064357D02*
X35947733Y-104159595D01*
X35947733Y-104159595D02*
X36328685Y-104159595D01*
X36328685Y-104159595D02*
X36519161Y-104064357D01*
X36519161Y-104064357D02*
X36614400Y-103969119D01*
X36614400Y-103969119D02*
X36709638Y-103778643D01*
X36709638Y-103778643D02*
X36709638Y-103397690D01*
X36709638Y-103397690D02*
X36614400Y-103207214D01*
X36614400Y-103207214D02*
X36519161Y-103111976D01*
X36519161Y-103111976D02*
X36328685Y-103016738D01*
X36328685Y-103016738D02*
X35947733Y-103016738D01*
X35947733Y-103016738D02*
X35757257Y-103111976D01*
X35757257Y-103111976D02*
X35662019Y-103207214D01*
X35662019Y-103207214D02*
X35566780Y-103397690D01*
X34709638Y-101302452D02*
X34709638Y-101683405D01*
X34709638Y-101683405D02*
X34804876Y-101873881D01*
X34804876Y-101873881D02*
X34900114Y-101969119D01*
X34900114Y-101969119D02*
X35185828Y-102159595D01*
X35185828Y-102159595D02*
X35566780Y-102254833D01*
X35566780Y-102254833D02*
X36328685Y-102254833D01*
X36328685Y-102254833D02*
X36519161Y-102159595D01*
X36519161Y-102159595D02*
X36614400Y-102064357D01*
X36614400Y-102064357D02*
X36709638Y-101873881D01*
X36709638Y-101873881D02*
X36709638Y-101492928D01*
X36709638Y-101492928D02*
X36614400Y-101302452D01*
X36614400Y-101302452D02*
X36519161Y-101207214D01*
X36519161Y-101207214D02*
X36328685Y-101111976D01*
X36328685Y-101111976D02*
X35852495Y-101111976D01*
X35852495Y-101111976D02*
X35662019Y-101207214D01*
X35662019Y-101207214D02*
X35566780Y-101302452D01*
X35566780Y-101302452D02*
X35471542Y-101492928D01*
X35471542Y-101492928D02*
X35471542Y-101873881D01*
X35471542Y-101873881D02*
X35566780Y-102064357D01*
X35566780Y-102064357D02*
X35662019Y-102159595D01*
X35662019Y-102159595D02*
X35852495Y-102254833D01*
X36519161Y-100254833D02*
X36614400Y-100159595D01*
X36614400Y-100159595D02*
X36709638Y-100254833D01*
X36709638Y-100254833D02*
X36614400Y-100350071D01*
X36614400Y-100350071D02*
X36519161Y-100254833D01*
X36519161Y-100254833D02*
X36709638Y-100254833D01*
X36709638Y-98254833D02*
X36709638Y-99397690D01*
X36709638Y-98826262D02*
X34709638Y-98826262D01*
X34709638Y-98826262D02*
X34995352Y-99016738D01*
X34995352Y-99016738D02*
X35185828Y-99207214D01*
X35185828Y-99207214D02*
X35281066Y-99397690D01*
X36709638Y-97302452D02*
X36709638Y-96921500D01*
X36709638Y-96921500D02*
X36614400Y-96731023D01*
X36614400Y-96731023D02*
X36519161Y-96635785D01*
X36519161Y-96635785D02*
X36233447Y-96445309D01*
X36233447Y-96445309D02*
X35852495Y-96350071D01*
X35852495Y-96350071D02*
X35090590Y-96350071D01*
X35090590Y-96350071D02*
X34900114Y-96445309D01*
X34900114Y-96445309D02*
X34804876Y-96540547D01*
X34804876Y-96540547D02*
X34709638Y-96731023D01*
X34709638Y-96731023D02*
X34709638Y-97111976D01*
X34709638Y-97111976D02*
X34804876Y-97302452D01*
X34804876Y-97302452D02*
X34900114Y-97397690D01*
X34900114Y-97397690D02*
X35090590Y-97492928D01*
X35090590Y-97492928D02*
X35566780Y-97492928D01*
X35566780Y-97492928D02*
X35757257Y-97397690D01*
X35757257Y-97397690D02*
X35852495Y-97302452D01*
X35852495Y-97302452D02*
X35947733Y-97111976D01*
X35947733Y-97111976D02*
X35947733Y-96731023D01*
X35947733Y-96731023D02*
X35852495Y-96540547D01*
X35852495Y-96540547D02*
X35757257Y-96445309D01*
X35757257Y-96445309D02*
X35566780Y-96350071D01*
X34709638Y-95683404D02*
X34709638Y-94350071D01*
X34709638Y-94350071D02*
X36709638Y-95207214D01*
X34709638Y-93207214D02*
X34709638Y-93016737D01*
X34709638Y-93016737D02*
X34804876Y-92826261D01*
X34804876Y-92826261D02*
X34900114Y-92731023D01*
X34900114Y-92731023D02*
X35090590Y-92635785D01*
X35090590Y-92635785D02*
X35471542Y-92540547D01*
X35471542Y-92540547D02*
X35947733Y-92540547D01*
X35947733Y-92540547D02*
X36328685Y-92635785D01*
X36328685Y-92635785D02*
X36519161Y-92731023D01*
X36519161Y-92731023D02*
X36614400Y-92826261D01*
X36614400Y-92826261D02*
X36709638Y-93016737D01*
X36709638Y-93016737D02*
X36709638Y-93207214D01*
X36709638Y-93207214D02*
X36614400Y-93397690D01*
X36614400Y-93397690D02*
X36519161Y-93492928D01*
X36519161Y-93492928D02*
X36328685Y-93588166D01*
X36328685Y-93588166D02*
X35947733Y-93683404D01*
X35947733Y-93683404D02*
X35471542Y-93683404D01*
X35471542Y-93683404D02*
X35090590Y-93588166D01*
X35090590Y-93588166D02*
X34900114Y-93492928D01*
X34900114Y-93492928D02*
X34804876Y-93397690D01*
X34804876Y-93397690D02*
X34709638Y-93207214D01*
X36709638Y-90159594D02*
X35376304Y-90159594D01*
X35566780Y-90159594D02*
X35471542Y-90064356D01*
X35471542Y-90064356D02*
X35376304Y-89873880D01*
X35376304Y-89873880D02*
X35376304Y-89588165D01*
X35376304Y-89588165D02*
X35471542Y-89397689D01*
X35471542Y-89397689D02*
X35662019Y-89302451D01*
X35662019Y-89302451D02*
X36709638Y-89302451D01*
X35662019Y-89302451D02*
X35471542Y-89207213D01*
X35471542Y-89207213D02*
X35376304Y-89016737D01*
X35376304Y-89016737D02*
X35376304Y-88731023D01*
X35376304Y-88731023D02*
X35471542Y-88540546D01*
X35471542Y-88540546D02*
X35662019Y-88445308D01*
X35662019Y-88445308D02*
X36709638Y-88445308D01*
X36709638Y-87492927D02*
X35376304Y-87492927D01*
X35566780Y-87492927D02*
X35471542Y-87397689D01*
X35471542Y-87397689D02*
X35376304Y-87207213D01*
X35376304Y-87207213D02*
X35376304Y-86921498D01*
X35376304Y-86921498D02*
X35471542Y-86731022D01*
X35471542Y-86731022D02*
X35662019Y-86635784D01*
X35662019Y-86635784D02*
X36709638Y-86635784D01*
X35662019Y-86635784D02*
X35471542Y-86540546D01*
X35471542Y-86540546D02*
X35376304Y-86350070D01*
X35376304Y-86350070D02*
X35376304Y-86064356D01*
X35376304Y-86064356D02*
X35471542Y-85873879D01*
X35471542Y-85873879D02*
X35662019Y-85778641D01*
X35662019Y-85778641D02*
X36709638Y-85778641D01*
D12*
X47800000Y-51823000D02*
X37513580Y-51823000D01*
X47800000Y-138020000D02*
X37513580Y-138020000D01*
X38100000Y-51823000D02*
X38100000Y-138020000D01*
X38100000Y-51823000D02*
X38100000Y-138020000D01*
X38100000Y-51823000D02*
X38686421Y-52949504D01*
X38100000Y-51823000D02*
X37513579Y-52949504D01*
X38100000Y-138020000D02*
X37513579Y-136893496D01*
X38100000Y-138020000D02*
X38686421Y-136893496D01*
M02*
