%TF.GenerationSoftware,KiCad,Pcbnew,8.0.1*%
%TF.CreationDate,2024-04-12T11:27:52-03:00*%
%TF.ProjectId,PonchoRema,506f6e63-686f-4526-956d-612e6b696361,rev?*%
%TF.SameCoordinates,Original*%
%TF.FileFunction,Drillmap*%
%TF.FilePolarity,Positive*%
%FSLAX45Y45*%
G04 Gerber Fmt 4.5, Leading zero omitted, Abs format (unit mm)*
G04 Created by KiCad (PCBNEW 8.0.1) date 2024-04-12 11:27:52*
%MOMM*%
%LPD*%
G01*
G04 APERTURE LIST*
%ADD10C,0.100000*%
%ADD11C,0.200000*%
%ADD12C,0.150000*%
%ADD13C,0.180000*%
G04 APERTURE END LIST*
D10*
X4830000Y-13802000D02*
X18690000Y-13802000D01*
X4830000Y-5182300D02*
X4830000Y-13802000D01*
X4830164Y-5181956D02*
X18690164Y-5181956D01*
X18690000Y-5182000D02*
X18690000Y-13801700D01*
D11*
D12*
X13528200Y-11493500D02*
X13678200Y-11643500D01*
X13678200Y-11493500D02*
X13528200Y-11643500D01*
X13528200Y-11978500D02*
X13678200Y-12128500D01*
X13678200Y-11978500D02*
X13528200Y-12128500D01*
D13*
X13996200Y-11538500D02*
G75*
G02*
X13816200Y-11538500I-90000J0D01*
G01*
X13816200Y-11538500D02*
G75*
G02*
X13996200Y-11538500I90000J0D01*
G01*
X13996200Y-12083500D02*
G75*
G02*
X13816200Y-12083500I-90000J0D01*
G01*
X13816200Y-12083500D02*
G75*
G02*
X13996200Y-12083500I90000J0D01*
G01*
D11*
X5085777Y-14118484D02*
X5085777Y-13918484D01*
X5085777Y-13918484D02*
X5133396Y-13918484D01*
X5133396Y-13918484D02*
X5161967Y-13928008D01*
X5161967Y-13928008D02*
X5181015Y-13947055D01*
X5181015Y-13947055D02*
X5190539Y-13966103D01*
X5190539Y-13966103D02*
X5200063Y-14004198D01*
X5200063Y-14004198D02*
X5200063Y-14032769D01*
X5200063Y-14032769D02*
X5190539Y-14070865D01*
X5190539Y-14070865D02*
X5181015Y-14089912D01*
X5181015Y-14089912D02*
X5161967Y-14108960D01*
X5161967Y-14108960D02*
X5133396Y-14118484D01*
X5133396Y-14118484D02*
X5085777Y-14118484D01*
X5285777Y-14118484D02*
X5285777Y-13985150D01*
X5285777Y-14023246D02*
X5295301Y-14004198D01*
X5295301Y-14004198D02*
X5304824Y-13994674D01*
X5304824Y-13994674D02*
X5323872Y-13985150D01*
X5323872Y-13985150D02*
X5342920Y-13985150D01*
X5409586Y-14118484D02*
X5409586Y-13985150D01*
X5409586Y-13918484D02*
X5400063Y-13928008D01*
X5400063Y-13928008D02*
X5409586Y-13937531D01*
X5409586Y-13937531D02*
X5419110Y-13928008D01*
X5419110Y-13928008D02*
X5409586Y-13918484D01*
X5409586Y-13918484D02*
X5409586Y-13937531D01*
X5533396Y-14118484D02*
X5514348Y-14108960D01*
X5514348Y-14108960D02*
X5504824Y-14089912D01*
X5504824Y-14089912D02*
X5504824Y-13918484D01*
X5638158Y-14118484D02*
X5619110Y-14108960D01*
X5619110Y-14108960D02*
X5609586Y-14089912D01*
X5609586Y-14089912D02*
X5609586Y-13918484D01*
X5866729Y-14118484D02*
X5866729Y-13918484D01*
X5866729Y-13918484D02*
X5933396Y-14061341D01*
X5933396Y-14061341D02*
X6000062Y-13918484D01*
X6000062Y-13918484D02*
X6000062Y-14118484D01*
X6181015Y-14118484D02*
X6181015Y-14013722D01*
X6181015Y-14013722D02*
X6171491Y-13994674D01*
X6171491Y-13994674D02*
X6152443Y-13985150D01*
X6152443Y-13985150D02*
X6114348Y-13985150D01*
X6114348Y-13985150D02*
X6095301Y-13994674D01*
X6181015Y-14108960D02*
X6161967Y-14118484D01*
X6161967Y-14118484D02*
X6114348Y-14118484D01*
X6114348Y-14118484D02*
X6095301Y-14108960D01*
X6095301Y-14108960D02*
X6085777Y-14089912D01*
X6085777Y-14089912D02*
X6085777Y-14070865D01*
X6085777Y-14070865D02*
X6095301Y-14051817D01*
X6095301Y-14051817D02*
X6114348Y-14042293D01*
X6114348Y-14042293D02*
X6161967Y-14042293D01*
X6161967Y-14042293D02*
X6181015Y-14032769D01*
X6276253Y-13985150D02*
X6276253Y-14185150D01*
X6276253Y-13994674D02*
X6295301Y-13985150D01*
X6295301Y-13985150D02*
X6333396Y-13985150D01*
X6333396Y-13985150D02*
X6352443Y-13994674D01*
X6352443Y-13994674D02*
X6361967Y-14004198D01*
X6361967Y-14004198D02*
X6371491Y-14023246D01*
X6371491Y-14023246D02*
X6371491Y-14080388D01*
X6371491Y-14080388D02*
X6361967Y-14099436D01*
X6361967Y-14099436D02*
X6352443Y-14108960D01*
X6352443Y-14108960D02*
X6333396Y-14118484D01*
X6333396Y-14118484D02*
X6295301Y-14118484D01*
X6295301Y-14118484D02*
X6276253Y-14108960D01*
X6457205Y-14099436D02*
X6466729Y-14108960D01*
X6466729Y-14108960D02*
X6457205Y-14118484D01*
X6457205Y-14118484D02*
X6447682Y-14108960D01*
X6447682Y-14108960D02*
X6457205Y-14099436D01*
X6457205Y-14099436D02*
X6457205Y-14118484D01*
X6457205Y-13994674D02*
X6466729Y-14004198D01*
X6466729Y-14004198D02*
X6457205Y-14013722D01*
X6457205Y-14013722D02*
X6447682Y-14004198D01*
X6447682Y-14004198D02*
X6457205Y-13994674D01*
X6457205Y-13994674D02*
X6457205Y-14013722D01*
D12*
X4675000Y-14372000D02*
X4825000Y-14522000D01*
X4825000Y-14372000D02*
X4675000Y-14522000D01*
D11*
X5190539Y-14538484D02*
X5076253Y-14538484D01*
X5133396Y-14538484D02*
X5133396Y-14338484D01*
X5133396Y-14338484D02*
X5114348Y-14367055D01*
X5114348Y-14367055D02*
X5095301Y-14386103D01*
X5095301Y-14386103D02*
X5076253Y-14395627D01*
X5276253Y-14519436D02*
X5285777Y-14528960D01*
X5285777Y-14528960D02*
X5276253Y-14538484D01*
X5276253Y-14538484D02*
X5266729Y-14528960D01*
X5266729Y-14528960D02*
X5276253Y-14519436D01*
X5276253Y-14519436D02*
X5276253Y-14538484D01*
X5466729Y-14338484D02*
X5371491Y-14338484D01*
X5371491Y-14338484D02*
X5361967Y-14433722D01*
X5361967Y-14433722D02*
X5371491Y-14424198D01*
X5371491Y-14424198D02*
X5390539Y-14414674D01*
X5390539Y-14414674D02*
X5438158Y-14414674D01*
X5438158Y-14414674D02*
X5457205Y-14424198D01*
X5457205Y-14424198D02*
X5466729Y-14433722D01*
X5466729Y-14433722D02*
X5476253Y-14452769D01*
X5476253Y-14452769D02*
X5476253Y-14500388D01*
X5476253Y-14500388D02*
X5466729Y-14519436D01*
X5466729Y-14519436D02*
X5457205Y-14528960D01*
X5457205Y-14528960D02*
X5438158Y-14538484D01*
X5438158Y-14538484D02*
X5390539Y-14538484D01*
X5390539Y-14538484D02*
X5371491Y-14528960D01*
X5371491Y-14528960D02*
X5361967Y-14519436D01*
X5600062Y-14338484D02*
X5619110Y-14338484D01*
X5619110Y-14338484D02*
X5638158Y-14348008D01*
X5638158Y-14348008D02*
X5647682Y-14357531D01*
X5647682Y-14357531D02*
X5657205Y-14376579D01*
X5657205Y-14376579D02*
X5666729Y-14414674D01*
X5666729Y-14414674D02*
X5666729Y-14462293D01*
X5666729Y-14462293D02*
X5657205Y-14500388D01*
X5657205Y-14500388D02*
X5647682Y-14519436D01*
X5647682Y-14519436D02*
X5638158Y-14528960D01*
X5638158Y-14528960D02*
X5619110Y-14538484D01*
X5619110Y-14538484D02*
X5600062Y-14538484D01*
X5600062Y-14538484D02*
X5581015Y-14528960D01*
X5581015Y-14528960D02*
X5571491Y-14519436D01*
X5571491Y-14519436D02*
X5561967Y-14500388D01*
X5561967Y-14500388D02*
X5552444Y-14462293D01*
X5552444Y-14462293D02*
X5552444Y-14414674D01*
X5552444Y-14414674D02*
X5561967Y-14376579D01*
X5561967Y-14376579D02*
X5571491Y-14357531D01*
X5571491Y-14357531D02*
X5581015Y-14348008D01*
X5581015Y-14348008D02*
X5600062Y-14338484D01*
X5790539Y-14338484D02*
X5809586Y-14338484D01*
X5809586Y-14338484D02*
X5828634Y-14348008D01*
X5828634Y-14348008D02*
X5838158Y-14357531D01*
X5838158Y-14357531D02*
X5847682Y-14376579D01*
X5847682Y-14376579D02*
X5857205Y-14414674D01*
X5857205Y-14414674D02*
X5857205Y-14462293D01*
X5857205Y-14462293D02*
X5847682Y-14500388D01*
X5847682Y-14500388D02*
X5838158Y-14519436D01*
X5838158Y-14519436D02*
X5828634Y-14528960D01*
X5828634Y-14528960D02*
X5809586Y-14538484D01*
X5809586Y-14538484D02*
X5790539Y-14538484D01*
X5790539Y-14538484D02*
X5771491Y-14528960D01*
X5771491Y-14528960D02*
X5761967Y-14519436D01*
X5761967Y-14519436D02*
X5752443Y-14500388D01*
X5752443Y-14500388D02*
X5742920Y-14462293D01*
X5742920Y-14462293D02*
X5742920Y-14414674D01*
X5742920Y-14414674D02*
X5752443Y-14376579D01*
X5752443Y-14376579D02*
X5761967Y-14357531D01*
X5761967Y-14357531D02*
X5771491Y-14348008D01*
X5771491Y-14348008D02*
X5790539Y-14338484D01*
X5942920Y-14538484D02*
X5942920Y-14405150D01*
X5942920Y-14424198D02*
X5952443Y-14414674D01*
X5952443Y-14414674D02*
X5971491Y-14405150D01*
X5971491Y-14405150D02*
X6000063Y-14405150D01*
X6000063Y-14405150D02*
X6019110Y-14414674D01*
X6019110Y-14414674D02*
X6028634Y-14433722D01*
X6028634Y-14433722D02*
X6028634Y-14538484D01*
X6028634Y-14433722D02*
X6038158Y-14414674D01*
X6038158Y-14414674D02*
X6057205Y-14405150D01*
X6057205Y-14405150D02*
X6085777Y-14405150D01*
X6085777Y-14405150D02*
X6104824Y-14414674D01*
X6104824Y-14414674D02*
X6114348Y-14433722D01*
X6114348Y-14433722D02*
X6114348Y-14538484D01*
X6209586Y-14538484D02*
X6209586Y-14405150D01*
X6209586Y-14424198D02*
X6219110Y-14414674D01*
X6219110Y-14414674D02*
X6238158Y-14405150D01*
X6238158Y-14405150D02*
X6266729Y-14405150D01*
X6266729Y-14405150D02*
X6285777Y-14414674D01*
X6285777Y-14414674D02*
X6295301Y-14433722D01*
X6295301Y-14433722D02*
X6295301Y-14538484D01*
X6295301Y-14433722D02*
X6304824Y-14414674D01*
X6304824Y-14414674D02*
X6323872Y-14405150D01*
X6323872Y-14405150D02*
X6352443Y-14405150D01*
X6352443Y-14405150D02*
X6371491Y-14414674D01*
X6371491Y-14414674D02*
X6381015Y-14433722D01*
X6381015Y-14433722D02*
X6381015Y-14538484D01*
X6771491Y-14328960D02*
X6600063Y-14586103D01*
X7028634Y-14338484D02*
X7047682Y-14338484D01*
X7047682Y-14338484D02*
X7066729Y-14348008D01*
X7066729Y-14348008D02*
X7076253Y-14357531D01*
X7076253Y-14357531D02*
X7085777Y-14376579D01*
X7085777Y-14376579D02*
X7095301Y-14414674D01*
X7095301Y-14414674D02*
X7095301Y-14462293D01*
X7095301Y-14462293D02*
X7085777Y-14500388D01*
X7085777Y-14500388D02*
X7076253Y-14519436D01*
X7076253Y-14519436D02*
X7066729Y-14528960D01*
X7066729Y-14528960D02*
X7047682Y-14538484D01*
X7047682Y-14538484D02*
X7028634Y-14538484D01*
X7028634Y-14538484D02*
X7009586Y-14528960D01*
X7009586Y-14528960D02*
X7000063Y-14519436D01*
X7000063Y-14519436D02*
X6990539Y-14500388D01*
X6990539Y-14500388D02*
X6981015Y-14462293D01*
X6981015Y-14462293D02*
X6981015Y-14414674D01*
X6981015Y-14414674D02*
X6990539Y-14376579D01*
X6990539Y-14376579D02*
X7000063Y-14357531D01*
X7000063Y-14357531D02*
X7009586Y-14348008D01*
X7009586Y-14348008D02*
X7028634Y-14338484D01*
X7181015Y-14519436D02*
X7190539Y-14528960D01*
X7190539Y-14528960D02*
X7181015Y-14538484D01*
X7181015Y-14538484D02*
X7171491Y-14528960D01*
X7171491Y-14528960D02*
X7181015Y-14519436D01*
X7181015Y-14519436D02*
X7181015Y-14538484D01*
X7314348Y-14338484D02*
X7333396Y-14338484D01*
X7333396Y-14338484D02*
X7352444Y-14348008D01*
X7352444Y-14348008D02*
X7361967Y-14357531D01*
X7361967Y-14357531D02*
X7371491Y-14376579D01*
X7371491Y-14376579D02*
X7381015Y-14414674D01*
X7381015Y-14414674D02*
X7381015Y-14462293D01*
X7381015Y-14462293D02*
X7371491Y-14500388D01*
X7371491Y-14500388D02*
X7361967Y-14519436D01*
X7361967Y-14519436D02*
X7352444Y-14528960D01*
X7352444Y-14528960D02*
X7333396Y-14538484D01*
X7333396Y-14538484D02*
X7314348Y-14538484D01*
X7314348Y-14538484D02*
X7295301Y-14528960D01*
X7295301Y-14528960D02*
X7285777Y-14519436D01*
X7285777Y-14519436D02*
X7276253Y-14500388D01*
X7276253Y-14500388D02*
X7266729Y-14462293D01*
X7266729Y-14462293D02*
X7266729Y-14414674D01*
X7266729Y-14414674D02*
X7276253Y-14376579D01*
X7276253Y-14376579D02*
X7285777Y-14357531D01*
X7285777Y-14357531D02*
X7295301Y-14348008D01*
X7295301Y-14348008D02*
X7314348Y-14338484D01*
X7561967Y-14338484D02*
X7466729Y-14338484D01*
X7466729Y-14338484D02*
X7457206Y-14433722D01*
X7457206Y-14433722D02*
X7466729Y-14424198D01*
X7466729Y-14424198D02*
X7485777Y-14414674D01*
X7485777Y-14414674D02*
X7533396Y-14414674D01*
X7533396Y-14414674D02*
X7552444Y-14424198D01*
X7552444Y-14424198D02*
X7561967Y-14433722D01*
X7561967Y-14433722D02*
X7571491Y-14452769D01*
X7571491Y-14452769D02*
X7571491Y-14500388D01*
X7571491Y-14500388D02*
X7561967Y-14519436D01*
X7561967Y-14519436D02*
X7552444Y-14528960D01*
X7552444Y-14528960D02*
X7533396Y-14538484D01*
X7533396Y-14538484D02*
X7485777Y-14538484D01*
X7485777Y-14538484D02*
X7466729Y-14528960D01*
X7466729Y-14528960D02*
X7457206Y-14519436D01*
X7666729Y-14538484D02*
X7704825Y-14538484D01*
X7704825Y-14538484D02*
X7723872Y-14528960D01*
X7723872Y-14528960D02*
X7733396Y-14519436D01*
X7733396Y-14519436D02*
X7752444Y-14490865D01*
X7752444Y-14490865D02*
X7761967Y-14452769D01*
X7761967Y-14452769D02*
X7761967Y-14376579D01*
X7761967Y-14376579D02*
X7752444Y-14357531D01*
X7752444Y-14357531D02*
X7742920Y-14348008D01*
X7742920Y-14348008D02*
X7723872Y-14338484D01*
X7723872Y-14338484D02*
X7685777Y-14338484D01*
X7685777Y-14338484D02*
X7666729Y-14348008D01*
X7666729Y-14348008D02*
X7657206Y-14357531D01*
X7657206Y-14357531D02*
X7647682Y-14376579D01*
X7647682Y-14376579D02*
X7647682Y-14424198D01*
X7647682Y-14424198D02*
X7657206Y-14443246D01*
X7657206Y-14443246D02*
X7666729Y-14452769D01*
X7666729Y-14452769D02*
X7685777Y-14462293D01*
X7685777Y-14462293D02*
X7723872Y-14462293D01*
X7723872Y-14462293D02*
X7742920Y-14452769D01*
X7742920Y-14452769D02*
X7752444Y-14443246D01*
X7752444Y-14443246D02*
X7761967Y-14424198D01*
X7952444Y-14538484D02*
X7838158Y-14538484D01*
X7895301Y-14538484D02*
X7895301Y-14338484D01*
X7895301Y-14338484D02*
X7876253Y-14367055D01*
X7876253Y-14367055D02*
X7857206Y-14386103D01*
X7857206Y-14386103D02*
X7838158Y-14395627D01*
X8028634Y-14338484D02*
X8028634Y-14376579D01*
X8104825Y-14338484D02*
X8104825Y-14376579D01*
X8400063Y-14614674D02*
X8390539Y-14605150D01*
X8390539Y-14605150D02*
X8371491Y-14576579D01*
X8371491Y-14576579D02*
X8361968Y-14557531D01*
X8361968Y-14557531D02*
X8352444Y-14528960D01*
X8352444Y-14528960D02*
X8342920Y-14481341D01*
X8342920Y-14481341D02*
X8342920Y-14443246D01*
X8342920Y-14443246D02*
X8352444Y-14395627D01*
X8352444Y-14395627D02*
X8361968Y-14367055D01*
X8361968Y-14367055D02*
X8371491Y-14348008D01*
X8371491Y-14348008D02*
X8390539Y-14319436D01*
X8390539Y-14319436D02*
X8400063Y-14309912D01*
X8466730Y-14357531D02*
X8476253Y-14348008D01*
X8476253Y-14348008D02*
X8495301Y-14338484D01*
X8495301Y-14338484D02*
X8542920Y-14338484D01*
X8542920Y-14338484D02*
X8561968Y-14348008D01*
X8561968Y-14348008D02*
X8571491Y-14357531D01*
X8571491Y-14357531D02*
X8581015Y-14376579D01*
X8581015Y-14376579D02*
X8581015Y-14395627D01*
X8581015Y-14395627D02*
X8571491Y-14424198D01*
X8571491Y-14424198D02*
X8457206Y-14538484D01*
X8457206Y-14538484D02*
X8581015Y-14538484D01*
X8819111Y-14538484D02*
X8819111Y-14338484D01*
X8904825Y-14538484D02*
X8904825Y-14433722D01*
X8904825Y-14433722D02*
X8895301Y-14414674D01*
X8895301Y-14414674D02*
X8876253Y-14405150D01*
X8876253Y-14405150D02*
X8847682Y-14405150D01*
X8847682Y-14405150D02*
X8828634Y-14414674D01*
X8828634Y-14414674D02*
X8819111Y-14424198D01*
X9028634Y-14538484D02*
X9009587Y-14528960D01*
X9009587Y-14528960D02*
X9000063Y-14519436D01*
X9000063Y-14519436D02*
X8990539Y-14500388D01*
X8990539Y-14500388D02*
X8990539Y-14443246D01*
X8990539Y-14443246D02*
X9000063Y-14424198D01*
X9000063Y-14424198D02*
X9009587Y-14414674D01*
X9009587Y-14414674D02*
X9028634Y-14405150D01*
X9028634Y-14405150D02*
X9057206Y-14405150D01*
X9057206Y-14405150D02*
X9076253Y-14414674D01*
X9076253Y-14414674D02*
X9085777Y-14424198D01*
X9085777Y-14424198D02*
X9095301Y-14443246D01*
X9095301Y-14443246D02*
X9095301Y-14500388D01*
X9095301Y-14500388D02*
X9085777Y-14519436D01*
X9085777Y-14519436D02*
X9076253Y-14528960D01*
X9076253Y-14528960D02*
X9057206Y-14538484D01*
X9057206Y-14538484D02*
X9028634Y-14538484D01*
X9209587Y-14538484D02*
X9190539Y-14528960D01*
X9190539Y-14528960D02*
X9181015Y-14509912D01*
X9181015Y-14509912D02*
X9181015Y-14338484D01*
X9361968Y-14528960D02*
X9342920Y-14538484D01*
X9342920Y-14538484D02*
X9304825Y-14538484D01*
X9304825Y-14538484D02*
X9285777Y-14528960D01*
X9285777Y-14528960D02*
X9276253Y-14509912D01*
X9276253Y-14509912D02*
X9276253Y-14433722D01*
X9276253Y-14433722D02*
X9285777Y-14414674D01*
X9285777Y-14414674D02*
X9304825Y-14405150D01*
X9304825Y-14405150D02*
X9342920Y-14405150D01*
X9342920Y-14405150D02*
X9361968Y-14414674D01*
X9361968Y-14414674D02*
X9371492Y-14433722D01*
X9371492Y-14433722D02*
X9371492Y-14452769D01*
X9371492Y-14452769D02*
X9276253Y-14471817D01*
X9447682Y-14528960D02*
X9466730Y-14538484D01*
X9466730Y-14538484D02*
X9504825Y-14538484D01*
X9504825Y-14538484D02*
X9523873Y-14528960D01*
X9523873Y-14528960D02*
X9533396Y-14509912D01*
X9533396Y-14509912D02*
X9533396Y-14500388D01*
X9533396Y-14500388D02*
X9523873Y-14481341D01*
X9523873Y-14481341D02*
X9504825Y-14471817D01*
X9504825Y-14471817D02*
X9476253Y-14471817D01*
X9476253Y-14471817D02*
X9457206Y-14462293D01*
X9457206Y-14462293D02*
X9447682Y-14443246D01*
X9447682Y-14443246D02*
X9447682Y-14433722D01*
X9447682Y-14433722D02*
X9457206Y-14414674D01*
X9457206Y-14414674D02*
X9476253Y-14405150D01*
X9476253Y-14405150D02*
X9504825Y-14405150D01*
X9504825Y-14405150D02*
X9523873Y-14414674D01*
X9600063Y-14614674D02*
X9609587Y-14605150D01*
X9609587Y-14605150D02*
X9628634Y-14576579D01*
X9628634Y-14576579D02*
X9638158Y-14557531D01*
X9638158Y-14557531D02*
X9647682Y-14528960D01*
X9647682Y-14528960D02*
X9657206Y-14481341D01*
X9657206Y-14481341D02*
X9657206Y-14443246D01*
X9657206Y-14443246D02*
X9647682Y-14395627D01*
X9647682Y-14395627D02*
X9638158Y-14367055D01*
X9638158Y-14367055D02*
X9628634Y-14348008D01*
X9628634Y-14348008D02*
X9609587Y-14319436D01*
X9609587Y-14319436D02*
X9600063Y-14309912D01*
X9961968Y-14614674D02*
X9952444Y-14605150D01*
X9952444Y-14605150D02*
X9933396Y-14576579D01*
X9933396Y-14576579D02*
X9923873Y-14557531D01*
X9923873Y-14557531D02*
X9914349Y-14528960D01*
X9914349Y-14528960D02*
X9904825Y-14481341D01*
X9904825Y-14481341D02*
X9904825Y-14443246D01*
X9904825Y-14443246D02*
X9914349Y-14395627D01*
X9914349Y-14395627D02*
X9923873Y-14367055D01*
X9923873Y-14367055D02*
X9933396Y-14348008D01*
X9933396Y-14348008D02*
X9952444Y-14319436D01*
X9952444Y-14319436D02*
X9961968Y-14309912D01*
X10038158Y-14405150D02*
X10038158Y-14538484D01*
X10038158Y-14424198D02*
X10047682Y-14414674D01*
X10047682Y-14414674D02*
X10066730Y-14405150D01*
X10066730Y-14405150D02*
X10095301Y-14405150D01*
X10095301Y-14405150D02*
X10114349Y-14414674D01*
X10114349Y-14414674D02*
X10123873Y-14433722D01*
X10123873Y-14433722D02*
X10123873Y-14538484D01*
X10247682Y-14538484D02*
X10228634Y-14528960D01*
X10228634Y-14528960D02*
X10219111Y-14519436D01*
X10219111Y-14519436D02*
X10209587Y-14500388D01*
X10209587Y-14500388D02*
X10209587Y-14443246D01*
X10209587Y-14443246D02*
X10219111Y-14424198D01*
X10219111Y-14424198D02*
X10228634Y-14414674D01*
X10228634Y-14414674D02*
X10247682Y-14405150D01*
X10247682Y-14405150D02*
X10276254Y-14405150D01*
X10276254Y-14405150D02*
X10295301Y-14414674D01*
X10295301Y-14414674D02*
X10304825Y-14424198D01*
X10304825Y-14424198D02*
X10314349Y-14443246D01*
X10314349Y-14443246D02*
X10314349Y-14500388D01*
X10314349Y-14500388D02*
X10304825Y-14519436D01*
X10304825Y-14519436D02*
X10295301Y-14528960D01*
X10295301Y-14528960D02*
X10276254Y-14538484D01*
X10276254Y-14538484D02*
X10247682Y-14538484D01*
X10371492Y-14405150D02*
X10447682Y-14405150D01*
X10400063Y-14338484D02*
X10400063Y-14509912D01*
X10400063Y-14509912D02*
X10409587Y-14528960D01*
X10409587Y-14528960D02*
X10428634Y-14538484D01*
X10428634Y-14538484D02*
X10447682Y-14538484D01*
X10666730Y-14405150D02*
X10666730Y-14605150D01*
X10666730Y-14414674D02*
X10685777Y-14405150D01*
X10685777Y-14405150D02*
X10723873Y-14405150D01*
X10723873Y-14405150D02*
X10742920Y-14414674D01*
X10742920Y-14414674D02*
X10752444Y-14424198D01*
X10752444Y-14424198D02*
X10761968Y-14443246D01*
X10761968Y-14443246D02*
X10761968Y-14500388D01*
X10761968Y-14500388D02*
X10752444Y-14519436D01*
X10752444Y-14519436D02*
X10742920Y-14528960D01*
X10742920Y-14528960D02*
X10723873Y-14538484D01*
X10723873Y-14538484D02*
X10685777Y-14538484D01*
X10685777Y-14538484D02*
X10666730Y-14528960D01*
X10876254Y-14538484D02*
X10857206Y-14528960D01*
X10857206Y-14528960D02*
X10847682Y-14509912D01*
X10847682Y-14509912D02*
X10847682Y-14338484D01*
X11038158Y-14538484D02*
X11038158Y-14433722D01*
X11038158Y-14433722D02*
X11028635Y-14414674D01*
X11028635Y-14414674D02*
X11009587Y-14405150D01*
X11009587Y-14405150D02*
X10971492Y-14405150D01*
X10971492Y-14405150D02*
X10952444Y-14414674D01*
X11038158Y-14528960D02*
X11019111Y-14538484D01*
X11019111Y-14538484D02*
X10971492Y-14538484D01*
X10971492Y-14538484D02*
X10952444Y-14528960D01*
X10952444Y-14528960D02*
X10942920Y-14509912D01*
X10942920Y-14509912D02*
X10942920Y-14490865D01*
X10942920Y-14490865D02*
X10952444Y-14471817D01*
X10952444Y-14471817D02*
X10971492Y-14462293D01*
X10971492Y-14462293D02*
X11019111Y-14462293D01*
X11019111Y-14462293D02*
X11038158Y-14452769D01*
X11104825Y-14405150D02*
X11181015Y-14405150D01*
X11133396Y-14338484D02*
X11133396Y-14509912D01*
X11133396Y-14509912D02*
X11142920Y-14528960D01*
X11142920Y-14528960D02*
X11161968Y-14538484D01*
X11161968Y-14538484D02*
X11181015Y-14538484D01*
X11323873Y-14528960D02*
X11304825Y-14538484D01*
X11304825Y-14538484D02*
X11266730Y-14538484D01*
X11266730Y-14538484D02*
X11247682Y-14528960D01*
X11247682Y-14528960D02*
X11238158Y-14509912D01*
X11238158Y-14509912D02*
X11238158Y-14433722D01*
X11238158Y-14433722D02*
X11247682Y-14414674D01*
X11247682Y-14414674D02*
X11266730Y-14405150D01*
X11266730Y-14405150D02*
X11304825Y-14405150D01*
X11304825Y-14405150D02*
X11323873Y-14414674D01*
X11323873Y-14414674D02*
X11333396Y-14433722D01*
X11333396Y-14433722D02*
X11333396Y-14452769D01*
X11333396Y-14452769D02*
X11238158Y-14471817D01*
X11504825Y-14538484D02*
X11504825Y-14338484D01*
X11504825Y-14528960D02*
X11485777Y-14538484D01*
X11485777Y-14538484D02*
X11447682Y-14538484D01*
X11447682Y-14538484D02*
X11428634Y-14528960D01*
X11428634Y-14528960D02*
X11419111Y-14519436D01*
X11419111Y-14519436D02*
X11409587Y-14500388D01*
X11409587Y-14500388D02*
X11409587Y-14443246D01*
X11409587Y-14443246D02*
X11419111Y-14424198D01*
X11419111Y-14424198D02*
X11428634Y-14414674D01*
X11428634Y-14414674D02*
X11447682Y-14405150D01*
X11447682Y-14405150D02*
X11485777Y-14405150D01*
X11485777Y-14405150D02*
X11504825Y-14414674D01*
X11581015Y-14614674D02*
X11590539Y-14605150D01*
X11590539Y-14605150D02*
X11609587Y-14576579D01*
X11609587Y-14576579D02*
X11619111Y-14557531D01*
X11619111Y-14557531D02*
X11628634Y-14528960D01*
X11628634Y-14528960D02*
X11638158Y-14481341D01*
X11638158Y-14481341D02*
X11638158Y-14443246D01*
X11638158Y-14443246D02*
X11628634Y-14395627D01*
X11628634Y-14395627D02*
X11619111Y-14367055D01*
X11619111Y-14367055D02*
X11609587Y-14348008D01*
X11609587Y-14348008D02*
X11590539Y-14319436D01*
X11590539Y-14319436D02*
X11581015Y-14309912D01*
D13*
X4825000Y-14717000D02*
G75*
G02*
X4645000Y-14717000I-90000J0D01*
G01*
X4645000Y-14717000D02*
G75*
G02*
X4825000Y-14717000I90000J0D01*
G01*
D11*
X5190539Y-14808484D02*
X5076253Y-14808484D01*
X5133396Y-14808484D02*
X5133396Y-14608484D01*
X5133396Y-14608484D02*
X5114348Y-14637055D01*
X5114348Y-14637055D02*
X5095301Y-14656103D01*
X5095301Y-14656103D02*
X5076253Y-14665627D01*
X5276253Y-14789436D02*
X5285777Y-14798960D01*
X5285777Y-14798960D02*
X5276253Y-14808484D01*
X5276253Y-14808484D02*
X5266729Y-14798960D01*
X5266729Y-14798960D02*
X5276253Y-14789436D01*
X5276253Y-14789436D02*
X5276253Y-14808484D01*
X5400063Y-14694198D02*
X5381015Y-14684674D01*
X5381015Y-14684674D02*
X5371491Y-14675150D01*
X5371491Y-14675150D02*
X5361967Y-14656103D01*
X5361967Y-14656103D02*
X5361967Y-14646579D01*
X5361967Y-14646579D02*
X5371491Y-14627531D01*
X5371491Y-14627531D02*
X5381015Y-14618008D01*
X5381015Y-14618008D02*
X5400063Y-14608484D01*
X5400063Y-14608484D02*
X5438158Y-14608484D01*
X5438158Y-14608484D02*
X5457205Y-14618008D01*
X5457205Y-14618008D02*
X5466729Y-14627531D01*
X5466729Y-14627531D02*
X5476253Y-14646579D01*
X5476253Y-14646579D02*
X5476253Y-14656103D01*
X5476253Y-14656103D02*
X5466729Y-14675150D01*
X5466729Y-14675150D02*
X5457205Y-14684674D01*
X5457205Y-14684674D02*
X5438158Y-14694198D01*
X5438158Y-14694198D02*
X5400063Y-14694198D01*
X5400063Y-14694198D02*
X5381015Y-14703722D01*
X5381015Y-14703722D02*
X5371491Y-14713246D01*
X5371491Y-14713246D02*
X5361967Y-14732293D01*
X5361967Y-14732293D02*
X5361967Y-14770388D01*
X5361967Y-14770388D02*
X5371491Y-14789436D01*
X5371491Y-14789436D02*
X5381015Y-14798960D01*
X5381015Y-14798960D02*
X5400063Y-14808484D01*
X5400063Y-14808484D02*
X5438158Y-14808484D01*
X5438158Y-14808484D02*
X5457205Y-14798960D01*
X5457205Y-14798960D02*
X5466729Y-14789436D01*
X5466729Y-14789436D02*
X5476253Y-14770388D01*
X5476253Y-14770388D02*
X5476253Y-14732293D01*
X5476253Y-14732293D02*
X5466729Y-14713246D01*
X5466729Y-14713246D02*
X5457205Y-14703722D01*
X5457205Y-14703722D02*
X5438158Y-14694198D01*
X5600062Y-14608484D02*
X5619110Y-14608484D01*
X5619110Y-14608484D02*
X5638158Y-14618008D01*
X5638158Y-14618008D02*
X5647682Y-14627531D01*
X5647682Y-14627531D02*
X5657205Y-14646579D01*
X5657205Y-14646579D02*
X5666729Y-14684674D01*
X5666729Y-14684674D02*
X5666729Y-14732293D01*
X5666729Y-14732293D02*
X5657205Y-14770388D01*
X5657205Y-14770388D02*
X5647682Y-14789436D01*
X5647682Y-14789436D02*
X5638158Y-14798960D01*
X5638158Y-14798960D02*
X5619110Y-14808484D01*
X5619110Y-14808484D02*
X5600062Y-14808484D01*
X5600062Y-14808484D02*
X5581015Y-14798960D01*
X5581015Y-14798960D02*
X5571491Y-14789436D01*
X5571491Y-14789436D02*
X5561967Y-14770388D01*
X5561967Y-14770388D02*
X5552444Y-14732293D01*
X5552444Y-14732293D02*
X5552444Y-14684674D01*
X5552444Y-14684674D02*
X5561967Y-14646579D01*
X5561967Y-14646579D02*
X5571491Y-14627531D01*
X5571491Y-14627531D02*
X5581015Y-14618008D01*
X5581015Y-14618008D02*
X5600062Y-14608484D01*
X5790539Y-14608484D02*
X5809586Y-14608484D01*
X5809586Y-14608484D02*
X5828634Y-14618008D01*
X5828634Y-14618008D02*
X5838158Y-14627531D01*
X5838158Y-14627531D02*
X5847682Y-14646579D01*
X5847682Y-14646579D02*
X5857205Y-14684674D01*
X5857205Y-14684674D02*
X5857205Y-14732293D01*
X5857205Y-14732293D02*
X5847682Y-14770388D01*
X5847682Y-14770388D02*
X5838158Y-14789436D01*
X5838158Y-14789436D02*
X5828634Y-14798960D01*
X5828634Y-14798960D02*
X5809586Y-14808484D01*
X5809586Y-14808484D02*
X5790539Y-14808484D01*
X5790539Y-14808484D02*
X5771491Y-14798960D01*
X5771491Y-14798960D02*
X5761967Y-14789436D01*
X5761967Y-14789436D02*
X5752443Y-14770388D01*
X5752443Y-14770388D02*
X5742920Y-14732293D01*
X5742920Y-14732293D02*
X5742920Y-14684674D01*
X5742920Y-14684674D02*
X5752443Y-14646579D01*
X5752443Y-14646579D02*
X5761967Y-14627531D01*
X5761967Y-14627531D02*
X5771491Y-14618008D01*
X5771491Y-14618008D02*
X5790539Y-14608484D01*
X5942920Y-14808484D02*
X5942920Y-14675150D01*
X5942920Y-14694198D02*
X5952443Y-14684674D01*
X5952443Y-14684674D02*
X5971491Y-14675150D01*
X5971491Y-14675150D02*
X6000063Y-14675150D01*
X6000063Y-14675150D02*
X6019110Y-14684674D01*
X6019110Y-14684674D02*
X6028634Y-14703722D01*
X6028634Y-14703722D02*
X6028634Y-14808484D01*
X6028634Y-14703722D02*
X6038158Y-14684674D01*
X6038158Y-14684674D02*
X6057205Y-14675150D01*
X6057205Y-14675150D02*
X6085777Y-14675150D01*
X6085777Y-14675150D02*
X6104824Y-14684674D01*
X6104824Y-14684674D02*
X6114348Y-14703722D01*
X6114348Y-14703722D02*
X6114348Y-14808484D01*
X6209586Y-14808484D02*
X6209586Y-14675150D01*
X6209586Y-14694198D02*
X6219110Y-14684674D01*
X6219110Y-14684674D02*
X6238158Y-14675150D01*
X6238158Y-14675150D02*
X6266729Y-14675150D01*
X6266729Y-14675150D02*
X6285777Y-14684674D01*
X6285777Y-14684674D02*
X6295301Y-14703722D01*
X6295301Y-14703722D02*
X6295301Y-14808484D01*
X6295301Y-14703722D02*
X6304824Y-14684674D01*
X6304824Y-14684674D02*
X6323872Y-14675150D01*
X6323872Y-14675150D02*
X6352443Y-14675150D01*
X6352443Y-14675150D02*
X6371491Y-14684674D01*
X6371491Y-14684674D02*
X6381015Y-14703722D01*
X6381015Y-14703722D02*
X6381015Y-14808484D01*
X6771491Y-14598960D02*
X6600063Y-14856103D01*
X7028634Y-14608484D02*
X7047682Y-14608484D01*
X7047682Y-14608484D02*
X7066729Y-14618008D01*
X7066729Y-14618008D02*
X7076253Y-14627531D01*
X7076253Y-14627531D02*
X7085777Y-14646579D01*
X7085777Y-14646579D02*
X7095301Y-14684674D01*
X7095301Y-14684674D02*
X7095301Y-14732293D01*
X7095301Y-14732293D02*
X7085777Y-14770388D01*
X7085777Y-14770388D02*
X7076253Y-14789436D01*
X7076253Y-14789436D02*
X7066729Y-14798960D01*
X7066729Y-14798960D02*
X7047682Y-14808484D01*
X7047682Y-14808484D02*
X7028634Y-14808484D01*
X7028634Y-14808484D02*
X7009586Y-14798960D01*
X7009586Y-14798960D02*
X7000063Y-14789436D01*
X7000063Y-14789436D02*
X6990539Y-14770388D01*
X6990539Y-14770388D02*
X6981015Y-14732293D01*
X6981015Y-14732293D02*
X6981015Y-14684674D01*
X6981015Y-14684674D02*
X6990539Y-14646579D01*
X6990539Y-14646579D02*
X7000063Y-14627531D01*
X7000063Y-14627531D02*
X7009586Y-14618008D01*
X7009586Y-14618008D02*
X7028634Y-14608484D01*
X7181015Y-14789436D02*
X7190539Y-14798960D01*
X7190539Y-14798960D02*
X7181015Y-14808484D01*
X7181015Y-14808484D02*
X7171491Y-14798960D01*
X7171491Y-14798960D02*
X7181015Y-14789436D01*
X7181015Y-14789436D02*
X7181015Y-14808484D01*
X7314348Y-14608484D02*
X7333396Y-14608484D01*
X7333396Y-14608484D02*
X7352444Y-14618008D01*
X7352444Y-14618008D02*
X7361967Y-14627531D01*
X7361967Y-14627531D02*
X7371491Y-14646579D01*
X7371491Y-14646579D02*
X7381015Y-14684674D01*
X7381015Y-14684674D02*
X7381015Y-14732293D01*
X7381015Y-14732293D02*
X7371491Y-14770388D01*
X7371491Y-14770388D02*
X7361967Y-14789436D01*
X7361967Y-14789436D02*
X7352444Y-14798960D01*
X7352444Y-14798960D02*
X7333396Y-14808484D01*
X7333396Y-14808484D02*
X7314348Y-14808484D01*
X7314348Y-14808484D02*
X7295301Y-14798960D01*
X7295301Y-14798960D02*
X7285777Y-14789436D01*
X7285777Y-14789436D02*
X7276253Y-14770388D01*
X7276253Y-14770388D02*
X7266729Y-14732293D01*
X7266729Y-14732293D02*
X7266729Y-14684674D01*
X7266729Y-14684674D02*
X7276253Y-14646579D01*
X7276253Y-14646579D02*
X7285777Y-14627531D01*
X7285777Y-14627531D02*
X7295301Y-14618008D01*
X7295301Y-14618008D02*
X7314348Y-14608484D01*
X7447682Y-14608484D02*
X7581015Y-14608484D01*
X7581015Y-14608484D02*
X7495301Y-14808484D01*
X7695301Y-14608484D02*
X7714348Y-14608484D01*
X7714348Y-14608484D02*
X7733396Y-14618008D01*
X7733396Y-14618008D02*
X7742920Y-14627531D01*
X7742920Y-14627531D02*
X7752444Y-14646579D01*
X7752444Y-14646579D02*
X7761967Y-14684674D01*
X7761967Y-14684674D02*
X7761967Y-14732293D01*
X7761967Y-14732293D02*
X7752444Y-14770388D01*
X7752444Y-14770388D02*
X7742920Y-14789436D01*
X7742920Y-14789436D02*
X7733396Y-14798960D01*
X7733396Y-14798960D02*
X7714348Y-14808484D01*
X7714348Y-14808484D02*
X7695301Y-14808484D01*
X7695301Y-14808484D02*
X7676253Y-14798960D01*
X7676253Y-14798960D02*
X7666729Y-14789436D01*
X7666729Y-14789436D02*
X7657206Y-14770388D01*
X7657206Y-14770388D02*
X7647682Y-14732293D01*
X7647682Y-14732293D02*
X7647682Y-14684674D01*
X7647682Y-14684674D02*
X7657206Y-14646579D01*
X7657206Y-14646579D02*
X7666729Y-14627531D01*
X7666729Y-14627531D02*
X7676253Y-14618008D01*
X7676253Y-14618008D02*
X7695301Y-14608484D01*
X7857206Y-14808484D02*
X7895301Y-14808484D01*
X7895301Y-14808484D02*
X7914348Y-14798960D01*
X7914348Y-14798960D02*
X7923872Y-14789436D01*
X7923872Y-14789436D02*
X7942920Y-14760865D01*
X7942920Y-14760865D02*
X7952444Y-14722769D01*
X7952444Y-14722769D02*
X7952444Y-14646579D01*
X7952444Y-14646579D02*
X7942920Y-14627531D01*
X7942920Y-14627531D02*
X7933396Y-14618008D01*
X7933396Y-14618008D02*
X7914348Y-14608484D01*
X7914348Y-14608484D02*
X7876253Y-14608484D01*
X7876253Y-14608484D02*
X7857206Y-14618008D01*
X7857206Y-14618008D02*
X7847682Y-14627531D01*
X7847682Y-14627531D02*
X7838158Y-14646579D01*
X7838158Y-14646579D02*
X7838158Y-14694198D01*
X7838158Y-14694198D02*
X7847682Y-14713246D01*
X7847682Y-14713246D02*
X7857206Y-14722769D01*
X7857206Y-14722769D02*
X7876253Y-14732293D01*
X7876253Y-14732293D02*
X7914348Y-14732293D01*
X7914348Y-14732293D02*
X7933396Y-14722769D01*
X7933396Y-14722769D02*
X7942920Y-14713246D01*
X7942920Y-14713246D02*
X7952444Y-14694198D01*
X8028634Y-14608484D02*
X8028634Y-14646579D01*
X8104825Y-14608484D02*
X8104825Y-14646579D01*
X8400063Y-14884674D02*
X8390539Y-14875150D01*
X8390539Y-14875150D02*
X8371491Y-14846579D01*
X8371491Y-14846579D02*
X8361968Y-14827531D01*
X8361968Y-14827531D02*
X8352444Y-14798960D01*
X8352444Y-14798960D02*
X8342920Y-14751341D01*
X8342920Y-14751341D02*
X8342920Y-14713246D01*
X8342920Y-14713246D02*
X8352444Y-14665627D01*
X8352444Y-14665627D02*
X8361968Y-14637055D01*
X8361968Y-14637055D02*
X8371491Y-14618008D01*
X8371491Y-14618008D02*
X8390539Y-14589436D01*
X8390539Y-14589436D02*
X8400063Y-14579912D01*
X8466730Y-14627531D02*
X8476253Y-14618008D01*
X8476253Y-14618008D02*
X8495301Y-14608484D01*
X8495301Y-14608484D02*
X8542920Y-14608484D01*
X8542920Y-14608484D02*
X8561968Y-14618008D01*
X8561968Y-14618008D02*
X8571491Y-14627531D01*
X8571491Y-14627531D02*
X8581015Y-14646579D01*
X8581015Y-14646579D02*
X8581015Y-14665627D01*
X8581015Y-14665627D02*
X8571491Y-14694198D01*
X8571491Y-14694198D02*
X8457206Y-14808484D01*
X8457206Y-14808484D02*
X8581015Y-14808484D01*
X8819111Y-14808484D02*
X8819111Y-14608484D01*
X8904825Y-14808484D02*
X8904825Y-14703722D01*
X8904825Y-14703722D02*
X8895301Y-14684674D01*
X8895301Y-14684674D02*
X8876253Y-14675150D01*
X8876253Y-14675150D02*
X8847682Y-14675150D01*
X8847682Y-14675150D02*
X8828634Y-14684674D01*
X8828634Y-14684674D02*
X8819111Y-14694198D01*
X9028634Y-14808484D02*
X9009587Y-14798960D01*
X9009587Y-14798960D02*
X9000063Y-14789436D01*
X9000063Y-14789436D02*
X8990539Y-14770388D01*
X8990539Y-14770388D02*
X8990539Y-14713246D01*
X8990539Y-14713246D02*
X9000063Y-14694198D01*
X9000063Y-14694198D02*
X9009587Y-14684674D01*
X9009587Y-14684674D02*
X9028634Y-14675150D01*
X9028634Y-14675150D02*
X9057206Y-14675150D01*
X9057206Y-14675150D02*
X9076253Y-14684674D01*
X9076253Y-14684674D02*
X9085777Y-14694198D01*
X9085777Y-14694198D02*
X9095301Y-14713246D01*
X9095301Y-14713246D02*
X9095301Y-14770388D01*
X9095301Y-14770388D02*
X9085777Y-14789436D01*
X9085777Y-14789436D02*
X9076253Y-14798960D01*
X9076253Y-14798960D02*
X9057206Y-14808484D01*
X9057206Y-14808484D02*
X9028634Y-14808484D01*
X9209587Y-14808484D02*
X9190539Y-14798960D01*
X9190539Y-14798960D02*
X9181015Y-14779912D01*
X9181015Y-14779912D02*
X9181015Y-14608484D01*
X9361968Y-14798960D02*
X9342920Y-14808484D01*
X9342920Y-14808484D02*
X9304825Y-14808484D01*
X9304825Y-14808484D02*
X9285777Y-14798960D01*
X9285777Y-14798960D02*
X9276253Y-14779912D01*
X9276253Y-14779912D02*
X9276253Y-14703722D01*
X9276253Y-14703722D02*
X9285777Y-14684674D01*
X9285777Y-14684674D02*
X9304825Y-14675150D01*
X9304825Y-14675150D02*
X9342920Y-14675150D01*
X9342920Y-14675150D02*
X9361968Y-14684674D01*
X9361968Y-14684674D02*
X9371492Y-14703722D01*
X9371492Y-14703722D02*
X9371492Y-14722769D01*
X9371492Y-14722769D02*
X9276253Y-14741817D01*
X9447682Y-14798960D02*
X9466730Y-14808484D01*
X9466730Y-14808484D02*
X9504825Y-14808484D01*
X9504825Y-14808484D02*
X9523873Y-14798960D01*
X9523873Y-14798960D02*
X9533396Y-14779912D01*
X9533396Y-14779912D02*
X9533396Y-14770388D01*
X9533396Y-14770388D02*
X9523873Y-14751341D01*
X9523873Y-14751341D02*
X9504825Y-14741817D01*
X9504825Y-14741817D02*
X9476253Y-14741817D01*
X9476253Y-14741817D02*
X9457206Y-14732293D01*
X9457206Y-14732293D02*
X9447682Y-14713246D01*
X9447682Y-14713246D02*
X9447682Y-14703722D01*
X9447682Y-14703722D02*
X9457206Y-14684674D01*
X9457206Y-14684674D02*
X9476253Y-14675150D01*
X9476253Y-14675150D02*
X9504825Y-14675150D01*
X9504825Y-14675150D02*
X9523873Y-14684674D01*
X9600063Y-14884674D02*
X9609587Y-14875150D01*
X9609587Y-14875150D02*
X9628634Y-14846579D01*
X9628634Y-14846579D02*
X9638158Y-14827531D01*
X9638158Y-14827531D02*
X9647682Y-14798960D01*
X9647682Y-14798960D02*
X9657206Y-14751341D01*
X9657206Y-14751341D02*
X9657206Y-14713246D01*
X9657206Y-14713246D02*
X9647682Y-14665627D01*
X9647682Y-14665627D02*
X9638158Y-14637055D01*
X9638158Y-14637055D02*
X9628634Y-14618008D01*
X9628634Y-14618008D02*
X9609587Y-14589436D01*
X9609587Y-14589436D02*
X9600063Y-14579912D01*
X9961968Y-14884674D02*
X9952444Y-14875150D01*
X9952444Y-14875150D02*
X9933396Y-14846579D01*
X9933396Y-14846579D02*
X9923873Y-14827531D01*
X9923873Y-14827531D02*
X9914349Y-14798960D01*
X9914349Y-14798960D02*
X9904825Y-14751341D01*
X9904825Y-14751341D02*
X9904825Y-14713246D01*
X9904825Y-14713246D02*
X9914349Y-14665627D01*
X9914349Y-14665627D02*
X9923873Y-14637055D01*
X9923873Y-14637055D02*
X9933396Y-14618008D01*
X9933396Y-14618008D02*
X9952444Y-14589436D01*
X9952444Y-14589436D02*
X9961968Y-14579912D01*
X10038158Y-14675150D02*
X10038158Y-14808484D01*
X10038158Y-14694198D02*
X10047682Y-14684674D01*
X10047682Y-14684674D02*
X10066730Y-14675150D01*
X10066730Y-14675150D02*
X10095301Y-14675150D01*
X10095301Y-14675150D02*
X10114349Y-14684674D01*
X10114349Y-14684674D02*
X10123873Y-14703722D01*
X10123873Y-14703722D02*
X10123873Y-14808484D01*
X10247682Y-14808484D02*
X10228634Y-14798960D01*
X10228634Y-14798960D02*
X10219111Y-14789436D01*
X10219111Y-14789436D02*
X10209587Y-14770388D01*
X10209587Y-14770388D02*
X10209587Y-14713246D01*
X10209587Y-14713246D02*
X10219111Y-14694198D01*
X10219111Y-14694198D02*
X10228634Y-14684674D01*
X10228634Y-14684674D02*
X10247682Y-14675150D01*
X10247682Y-14675150D02*
X10276254Y-14675150D01*
X10276254Y-14675150D02*
X10295301Y-14684674D01*
X10295301Y-14684674D02*
X10304825Y-14694198D01*
X10304825Y-14694198D02*
X10314349Y-14713246D01*
X10314349Y-14713246D02*
X10314349Y-14770388D01*
X10314349Y-14770388D02*
X10304825Y-14789436D01*
X10304825Y-14789436D02*
X10295301Y-14798960D01*
X10295301Y-14798960D02*
X10276254Y-14808484D01*
X10276254Y-14808484D02*
X10247682Y-14808484D01*
X10371492Y-14675150D02*
X10447682Y-14675150D01*
X10400063Y-14608484D02*
X10400063Y-14779912D01*
X10400063Y-14779912D02*
X10409587Y-14798960D01*
X10409587Y-14798960D02*
X10428634Y-14808484D01*
X10428634Y-14808484D02*
X10447682Y-14808484D01*
X10666730Y-14675150D02*
X10666730Y-14875150D01*
X10666730Y-14684674D02*
X10685777Y-14675150D01*
X10685777Y-14675150D02*
X10723873Y-14675150D01*
X10723873Y-14675150D02*
X10742920Y-14684674D01*
X10742920Y-14684674D02*
X10752444Y-14694198D01*
X10752444Y-14694198D02*
X10761968Y-14713246D01*
X10761968Y-14713246D02*
X10761968Y-14770388D01*
X10761968Y-14770388D02*
X10752444Y-14789436D01*
X10752444Y-14789436D02*
X10742920Y-14798960D01*
X10742920Y-14798960D02*
X10723873Y-14808484D01*
X10723873Y-14808484D02*
X10685777Y-14808484D01*
X10685777Y-14808484D02*
X10666730Y-14798960D01*
X10876254Y-14808484D02*
X10857206Y-14798960D01*
X10857206Y-14798960D02*
X10847682Y-14779912D01*
X10847682Y-14779912D02*
X10847682Y-14608484D01*
X11038158Y-14808484D02*
X11038158Y-14703722D01*
X11038158Y-14703722D02*
X11028635Y-14684674D01*
X11028635Y-14684674D02*
X11009587Y-14675150D01*
X11009587Y-14675150D02*
X10971492Y-14675150D01*
X10971492Y-14675150D02*
X10952444Y-14684674D01*
X11038158Y-14798960D02*
X11019111Y-14808484D01*
X11019111Y-14808484D02*
X10971492Y-14808484D01*
X10971492Y-14808484D02*
X10952444Y-14798960D01*
X10952444Y-14798960D02*
X10942920Y-14779912D01*
X10942920Y-14779912D02*
X10942920Y-14760865D01*
X10942920Y-14760865D02*
X10952444Y-14741817D01*
X10952444Y-14741817D02*
X10971492Y-14732293D01*
X10971492Y-14732293D02*
X11019111Y-14732293D01*
X11019111Y-14732293D02*
X11038158Y-14722769D01*
X11104825Y-14675150D02*
X11181015Y-14675150D01*
X11133396Y-14608484D02*
X11133396Y-14779912D01*
X11133396Y-14779912D02*
X11142920Y-14798960D01*
X11142920Y-14798960D02*
X11161968Y-14808484D01*
X11161968Y-14808484D02*
X11181015Y-14808484D01*
X11323873Y-14798960D02*
X11304825Y-14808484D01*
X11304825Y-14808484D02*
X11266730Y-14808484D01*
X11266730Y-14808484D02*
X11247682Y-14798960D01*
X11247682Y-14798960D02*
X11238158Y-14779912D01*
X11238158Y-14779912D02*
X11238158Y-14703722D01*
X11238158Y-14703722D02*
X11247682Y-14684674D01*
X11247682Y-14684674D02*
X11266730Y-14675150D01*
X11266730Y-14675150D02*
X11304825Y-14675150D01*
X11304825Y-14675150D02*
X11323873Y-14684674D01*
X11323873Y-14684674D02*
X11333396Y-14703722D01*
X11333396Y-14703722D02*
X11333396Y-14722769D01*
X11333396Y-14722769D02*
X11238158Y-14741817D01*
X11504825Y-14808484D02*
X11504825Y-14608484D01*
X11504825Y-14798960D02*
X11485777Y-14808484D01*
X11485777Y-14808484D02*
X11447682Y-14808484D01*
X11447682Y-14808484D02*
X11428634Y-14798960D01*
X11428634Y-14798960D02*
X11419111Y-14789436D01*
X11419111Y-14789436D02*
X11409587Y-14770388D01*
X11409587Y-14770388D02*
X11409587Y-14713246D01*
X11409587Y-14713246D02*
X11419111Y-14694198D01*
X11419111Y-14694198D02*
X11428634Y-14684674D01*
X11428634Y-14684674D02*
X11447682Y-14675150D01*
X11447682Y-14675150D02*
X11485777Y-14675150D01*
X11485777Y-14675150D02*
X11504825Y-14684674D01*
X11581015Y-14884674D02*
X11590539Y-14875150D01*
X11590539Y-14875150D02*
X11609587Y-14846579D01*
X11609587Y-14846579D02*
X11619111Y-14827531D01*
X11619111Y-14827531D02*
X11628634Y-14798960D01*
X11628634Y-14798960D02*
X11638158Y-14751341D01*
X11638158Y-14751341D02*
X11638158Y-14713246D01*
X11638158Y-14713246D02*
X11628634Y-14665627D01*
X11628634Y-14665627D02*
X11619111Y-14637055D01*
X11619111Y-14637055D02*
X11609587Y-14618008D01*
X11609587Y-14618008D02*
X11590539Y-14589436D01*
X11590539Y-14589436D02*
X11581015Y-14579912D01*
M02*
