%TF.GenerationSoftware,KiCad,Pcbnew,8.0.1*%
%TF.CreationDate,2024-04-12T11:28:31-03:00*%
%TF.ProjectId,PonchoRema,506f6e63-686f-4526-956d-612e6b696361,rev?*%
%TF.SameCoordinates,Original*%
%TF.FileFunction,Soldermask,Bot*%
%TF.FilePolarity,Negative*%
%FSLAX46Y46*%
G04 Gerber Fmt 4.6, Leading zero omitted, Abs format (unit mm)*
G04 Created by KiCad (PCBNEW 8.0.1) date 2024-04-12 11:28:31*
%MOMM*%
%LPD*%
G01*
G04 APERTURE LIST*
G04 Aperture macros list*
%AMRoundRect*
0 Rectangle with rounded corners*
0 $1 Rounding radius*
0 $2 $3 $4 $5 $6 $7 $8 $9 X,Y pos of 4 corners*
0 Add a 4 corners polygon primitive as box body*
4,1,4,$2,$3,$4,$5,$6,$7,$8,$9,$2,$3,0*
0 Add four circle primitives for the rounded corners*
1,1,$1+$1,$2,$3*
1,1,$1+$1,$4,$5*
1,1,$1+$1,$6,$7*
1,1,$1+$1,$8,$9*
0 Add four rect primitives between the rounded corners*
20,1,$1+$1,$2,$3,$4,$5,0*
20,1,$1+$1,$4,$5,$6,$7,0*
20,1,$1+$1,$6,$7,$8,$9,0*
20,1,$1+$1,$8,$9,$2,$3,0*%
G04 Aperture macros list end*
%ADD10R,1.700000X1.700000*%
%ADD11O,1.700000X1.700000*%
%ADD12C,4.500000*%
%ADD13O,1.800000X1.800000*%
%ADD14O,1.500000X1.500000*%
%ADD15C,2.000000*%
%ADD16R,1.600000X2.400000*%
%ADD17O,1.600000X2.400000*%
%ADD18C,1.600000*%
%ADD19O,1.600000X1.600000*%
%ADD20RoundRect,0.150000X-0.150000X0.725000X-0.150000X-0.725000X0.150000X-0.725000X0.150000X0.725000X0*%
%ADD21RoundRect,0.250000X0.625000X-0.312500X0.625000X0.312500X-0.625000X0.312500X-0.625000X-0.312500X0*%
%ADD22RoundRect,0.250000X-0.325000X-0.650000X0.325000X-0.650000X0.325000X0.650000X-0.325000X0.650000X0*%
%ADD23RoundRect,0.250000X0.325000X0.650000X-0.325000X0.650000X-0.325000X-0.650000X0.325000X-0.650000X0*%
%ADD24RoundRect,0.150000X0.825000X0.150000X-0.825000X0.150000X-0.825000X-0.150000X0.825000X-0.150000X0*%
G04 APERTURE END LIST*
D10*
%TO.C,J5*%
X168910000Y-55885000D03*
D11*
X166370000Y-55885000D03*
X163830000Y-55885000D03*
X161290000Y-55885000D03*
X158750000Y-55885000D03*
%TD*%
D10*
%TO.C,J2*%
X101600000Y-55875000D03*
D11*
X99060000Y-55875000D03*
X96520000Y-55875000D03*
X93980000Y-55875000D03*
X91440000Y-55875000D03*
%TD*%
D12*
%TO.C,H2*%
X53880000Y-133110000D03*
%TD*%
%TO.C,H1*%
X181215500Y-56856500D03*
%TD*%
D10*
%TO.C,JP8*%
X59436000Y-110363000D03*
D11*
X59436000Y-112903000D03*
X59436000Y-115443000D03*
%TD*%
D10*
%TO.C,JP1*%
X65032332Y-99822000D03*
D11*
X65032332Y-102362000D03*
X65032332Y-104902000D03*
%TD*%
D13*
%TO.C,U1*%
X139062000Y-115385000D03*
D14*
X136032000Y-115685000D03*
X136032000Y-120535000D03*
D13*
X139062000Y-120835000D03*
D11*
X139192000Y-109220000D03*
X136652000Y-109220000D03*
D10*
X134112000Y-109220000D03*
D11*
X131572000Y-109220000D03*
X129032000Y-109220000D03*
X126492000Y-109220000D03*
X123952000Y-109220000D03*
D10*
X121412000Y-109220000D03*
D11*
X118872000Y-109220000D03*
X116332000Y-109220000D03*
X113792000Y-109220000D03*
X111252000Y-109220000D03*
D10*
X108712000Y-109220000D03*
D11*
X106172000Y-109220000D03*
X103632000Y-109220000D03*
X101092000Y-109220000D03*
X98552000Y-109220000D03*
D10*
X96012000Y-109220000D03*
D11*
X93472000Y-109220000D03*
X90932000Y-109220000D03*
X90932000Y-127000000D03*
X93472000Y-127000000D03*
D10*
X96012000Y-127000000D03*
D11*
X98552000Y-127000000D03*
X101092000Y-127000000D03*
X103632000Y-127000000D03*
X106172000Y-127000000D03*
D10*
X108712000Y-127000000D03*
D11*
X111252000Y-127000000D03*
X113792000Y-127000000D03*
X116332000Y-127000000D03*
X118872000Y-127000000D03*
D10*
X121412000Y-127000000D03*
D11*
X123952000Y-127000000D03*
X126492000Y-127000000D03*
X129032000Y-127000000D03*
X131572000Y-127000000D03*
D10*
X134112000Y-127000000D03*
D11*
X136652000Y-127000000D03*
X139192000Y-127000000D03*
X91162000Y-115570000D03*
D10*
X91162000Y-118110000D03*
D11*
X91162000Y-120650000D03*
%TD*%
D10*
%TO.C,JP2*%
X70358000Y-99822000D03*
D11*
X70358000Y-102362000D03*
X70358000Y-104902000D03*
%TD*%
D12*
%TO.C,H3*%
X181215500Y-133106500D03*
%TD*%
D10*
%TO.C,JP4*%
X59461000Y-99822000D03*
D11*
X59461000Y-102362000D03*
X59461000Y-104902000D03*
%TD*%
D10*
%TO.C,J3*%
X86360000Y-55880000D03*
D11*
X83820000Y-55880000D03*
X81280000Y-55880000D03*
X78740000Y-55880000D03*
X76200000Y-55880000D03*
%TD*%
D15*
%TO.C,SW1*%
X77193000Y-94179000D03*
X83693000Y-94179000D03*
X77193000Y-98679000D03*
X83693000Y-98679000D03*
%TD*%
D10*
%TO.C,J6*%
X144140000Y-55885000D03*
D11*
X141600000Y-55885000D03*
X139060000Y-55885000D03*
X136520000Y-55885000D03*
X133980000Y-55885000D03*
%TD*%
D10*
%TO.C,JP6*%
X70358000Y-110363000D03*
D11*
X70358000Y-112903000D03*
X70358000Y-115443000D03*
%TD*%
D10*
%TO.C,JP3*%
X53991666Y-99822000D03*
D11*
X53991666Y-102362000D03*
X53991666Y-104902000D03*
%TD*%
D15*
%TO.C,SW2*%
X172085000Y-112395000D03*
X165585000Y-112395000D03*
X172085000Y-107895000D03*
X165585000Y-107895000D03*
%TD*%
D16*
%TO.C,U2*%
X109865000Y-66685000D03*
D17*
X107325000Y-66685000D03*
X104785000Y-66685000D03*
X102245000Y-66685000D03*
X99705000Y-66685000D03*
X97165000Y-66685000D03*
X94625000Y-66685000D03*
X92085000Y-66685000D03*
X92085000Y-74305000D03*
X94625000Y-74305000D03*
X97165000Y-74305000D03*
X99705000Y-74305000D03*
X102245000Y-74305000D03*
X104785000Y-74305000D03*
X107325000Y-74305000D03*
X109865000Y-74305000D03*
%TD*%
D10*
%TO.C,P1*%
X140970000Y-100330000D03*
D11*
X140970000Y-97790000D03*
X143510000Y-100330000D03*
X143510000Y-97790000D03*
X146050000Y-100330000D03*
X146050000Y-97790000D03*
X148590000Y-100330000D03*
X148590000Y-97790000D03*
X151130000Y-100330000D03*
X151130000Y-97790000D03*
X153670000Y-100330000D03*
X153670000Y-97790000D03*
X156210000Y-100330000D03*
X156210000Y-97790000D03*
X158750000Y-100330000D03*
X158750000Y-97790000D03*
X161290000Y-100330000D03*
X161290000Y-97790000D03*
X163830000Y-100330000D03*
X163830000Y-97790000D03*
%TD*%
D18*
%TO.C,R1*%
X177419000Y-93726000D03*
D19*
X177419000Y-86106000D03*
%TD*%
D10*
%TO.C,JP7*%
X53975000Y-110363000D03*
D11*
X53975000Y-112903000D03*
X53975000Y-115443000D03*
%TD*%
D10*
%TO.C,J4*%
X71120000Y-55880000D03*
D11*
X68580000Y-55880000D03*
X66040000Y-55880000D03*
X63500000Y-55880000D03*
X60960000Y-55880000D03*
%TD*%
D10*
%TO.C,J10*%
X160020000Y-133858000D03*
D11*
X162560000Y-133858000D03*
X165100000Y-133858000D03*
X167640000Y-133858000D03*
X170180000Y-133858000D03*
%TD*%
D10*
%TO.C,J7*%
X182880000Y-88392000D03*
D11*
X182880000Y-85852000D03*
X182880000Y-83312000D03*
%TD*%
D12*
%TO.C,H4*%
X53965500Y-56856500D03*
%TD*%
D16*
%TO.C,U3*%
X76835000Y-66685000D03*
D17*
X74295000Y-66685000D03*
X71755000Y-66685000D03*
X69215000Y-66685000D03*
X66675000Y-66685000D03*
X64135000Y-66685000D03*
X61595000Y-66685000D03*
X59055000Y-66685000D03*
X59055000Y-74305000D03*
X61595000Y-74305000D03*
X64135000Y-74305000D03*
X66675000Y-74305000D03*
X69215000Y-74305000D03*
X71755000Y-74305000D03*
X74295000Y-74305000D03*
X76835000Y-74305000D03*
%TD*%
D10*
%TO.C,J8*%
X182880000Y-101600000D03*
D11*
X182880000Y-104140000D03*
X182880000Y-106680000D03*
X182880000Y-109220000D03*
X182880000Y-111760000D03*
%TD*%
D16*
%TO.C,U5*%
X142875000Y-66685000D03*
D17*
X140335000Y-66685000D03*
X137795000Y-66685000D03*
X135255000Y-66685000D03*
X132715000Y-66685000D03*
X130175000Y-66685000D03*
X127635000Y-66685000D03*
X125095000Y-66685000D03*
X125095000Y-74305000D03*
X127635000Y-74305000D03*
X130175000Y-74305000D03*
X132715000Y-74305000D03*
X135255000Y-74305000D03*
X137795000Y-74305000D03*
X140335000Y-74305000D03*
X142875000Y-74305000D03*
%TD*%
D10*
%TO.C,P2*%
X96105366Y-97036905D03*
D11*
X96105366Y-99576905D03*
X93565366Y-97036905D03*
X93565366Y-99576905D03*
X91025366Y-97036905D03*
X91025366Y-99576905D03*
%TD*%
D16*
%TO.C,U4*%
X176530000Y-66685000D03*
D17*
X173990000Y-66685000D03*
X171450000Y-66685000D03*
X168910000Y-66685000D03*
X166370000Y-66685000D03*
X163830000Y-66685000D03*
X161290000Y-66685000D03*
X158750000Y-66685000D03*
X158750000Y-74305000D03*
X161290000Y-74305000D03*
X163830000Y-74305000D03*
X166370000Y-74305000D03*
X168910000Y-74305000D03*
X171450000Y-74305000D03*
X173990000Y-74305000D03*
X176530000Y-74305000D03*
%TD*%
D10*
%TO.C,JP5*%
X65024000Y-110363000D03*
D11*
X65024000Y-112903000D03*
X65024000Y-115443000D03*
%TD*%
D10*
%TO.C,J1*%
X116840000Y-55875000D03*
D11*
X114300000Y-55875000D03*
X111760000Y-55875000D03*
X109220000Y-55875000D03*
X106680000Y-55875000D03*
%TD*%
D10*
%TO.C,J9*%
X64770000Y-129794000D03*
D11*
X67310000Y-129794000D03*
X69850000Y-129794000D03*
X72390000Y-129794000D03*
X74930000Y-129794000D03*
%TD*%
D20*
%TO.C,U9*%
X168021000Y-120523000D03*
X169291000Y-120523000D03*
X170561000Y-120523000D03*
X171831000Y-120523000D03*
X173101000Y-120523000D03*
X174371000Y-120523000D03*
X175641000Y-120523000D03*
X176911000Y-120523000D03*
X176911000Y-125673000D03*
X175641000Y-125673000D03*
X174371000Y-125673000D03*
X173101000Y-125673000D03*
X171831000Y-125673000D03*
X170561000Y-125673000D03*
X169291000Y-125673000D03*
X168021000Y-125673000D03*
%TD*%
D21*
%TO.C,R69*%
X97142790Y-86074793D03*
X97142790Y-83149793D03*
%TD*%
D22*
%TO.C,C4*%
X149225000Y-63500000D03*
X152175000Y-63500000D03*
%TD*%
D21*
%TO.C,R79*%
X140308638Y-86032500D03*
X140308638Y-83107500D03*
%TD*%
D23*
%TO.C,C5*%
X111789000Y-70612000D03*
X108839000Y-70612000D03*
%TD*%
D21*
%TO.C,R65*%
X104762790Y-86074793D03*
X104762790Y-83149793D03*
%TD*%
%TO.C,R63*%
X108572790Y-86074793D03*
X108572790Y-83149793D03*
%TD*%
%TO.C,R88*%
X71120000Y-91760598D03*
X71120000Y-88835598D03*
%TD*%
%TO.C,R78*%
X144145000Y-91747500D03*
X144145000Y-88822500D03*
%TD*%
%TO.C,R84*%
X132715000Y-91747500D03*
X132715000Y-88822500D03*
%TD*%
%TO.C,R90*%
X74930000Y-91760598D03*
X74930000Y-88835598D03*
%TD*%
D24*
%TO.C,U7*%
X152970000Y-69215000D03*
X152970000Y-70485000D03*
X152970000Y-71755000D03*
X152970000Y-73025000D03*
X152970000Y-74295000D03*
X152970000Y-75565000D03*
X152970000Y-76835000D03*
X148020000Y-76835000D03*
X148020000Y-75565000D03*
X148020000Y-74295000D03*
X148020000Y-73025000D03*
X148020000Y-71755000D03*
X148020000Y-70485000D03*
X148020000Y-69215000D03*
%TD*%
D21*
%TO.C,R77*%
X144118638Y-86032500D03*
X144118638Y-83107500D03*
%TD*%
%TO.C,R71*%
X58420000Y-86110000D03*
X58420000Y-83185000D03*
%TD*%
D20*
%TO.C,U10*%
X148590000Y-120650000D03*
X149860000Y-120650000D03*
X151130000Y-120650000D03*
X152400000Y-120650000D03*
X153670000Y-120650000D03*
X154940000Y-120650000D03*
X156210000Y-120650000D03*
X157480000Y-120650000D03*
X157480000Y-125800000D03*
X156210000Y-125800000D03*
X154940000Y-125800000D03*
X153670000Y-125800000D03*
X152400000Y-125800000D03*
X151130000Y-125800000D03*
X149860000Y-125800000D03*
X148590000Y-125800000D03*
%TD*%
D21*
%TO.C,R86*%
X128905000Y-91747500D03*
X128905000Y-88822500D03*
%TD*%
%TO.C,R76*%
X147955000Y-91747500D03*
X147955000Y-88822500D03*
%TD*%
%TO.C,R81*%
X136498638Y-86032500D03*
X136498638Y-83107500D03*
%TD*%
%TO.C,R87*%
X71120000Y-86045598D03*
X71120000Y-83120598D03*
%TD*%
%TO.C,R82*%
X136525000Y-91747500D03*
X136525000Y-88822500D03*
%TD*%
D22*
%TO.C,C3*%
X82648000Y-64262000D03*
X85598000Y-64262000D03*
%TD*%
D21*
%TO.C,R66*%
X104775000Y-91789793D03*
X104775000Y-88864793D03*
%TD*%
%TO.C,R73*%
X62230000Y-86110000D03*
X62230000Y-83185000D03*
%TD*%
%TO.C,R70*%
X97155000Y-91789793D03*
X97155000Y-88864793D03*
%TD*%
%TO.C,R89*%
X74930000Y-86045598D03*
X74930000Y-83120598D03*
%TD*%
%TO.C,R91*%
X112382790Y-86074793D03*
X112382790Y-83149793D03*
%TD*%
%TO.C,R61*%
X116192790Y-86074793D03*
X116192790Y-83149793D03*
%TD*%
%TO.C,R85*%
X128878638Y-86032500D03*
X128878638Y-83107500D03*
%TD*%
%TO.C,R74*%
X62230000Y-91825000D03*
X62230000Y-88900000D03*
%TD*%
D24*
%TO.C,U6*%
X86676000Y-69088000D03*
X86676000Y-70358000D03*
X86676000Y-71628000D03*
X86676000Y-72898000D03*
X86676000Y-74168000D03*
X86676000Y-75438000D03*
X86676000Y-76708000D03*
X81726000Y-76708000D03*
X81726000Y-75438000D03*
X81726000Y-74168000D03*
X81726000Y-72898000D03*
X81726000Y-71628000D03*
X81726000Y-70358000D03*
X81726000Y-69088000D03*
%TD*%
D21*
%TO.C,R72*%
X58420000Y-91825000D03*
X58420000Y-88900000D03*
%TD*%
%TO.C,R62*%
X116205000Y-91789793D03*
X116205000Y-88864793D03*
%TD*%
%TO.C,R75*%
X147928638Y-86032500D03*
X147928638Y-83107500D03*
%TD*%
%TO.C,R67*%
X100952790Y-86074793D03*
X100952790Y-83149793D03*
%TD*%
%TO.C,R83*%
X132688638Y-86032500D03*
X132688638Y-83107500D03*
%TD*%
%TO.C,R92*%
X112395000Y-91789793D03*
X112395000Y-88864793D03*
%TD*%
D24*
%TO.C,U8*%
X119631000Y-68834000D03*
X119631000Y-70104000D03*
X119631000Y-71374000D03*
X119631000Y-72644000D03*
X119631000Y-73914000D03*
X119631000Y-75184000D03*
X119631000Y-76454000D03*
X114681000Y-76454000D03*
X114681000Y-75184000D03*
X114681000Y-73914000D03*
X114681000Y-72644000D03*
X114681000Y-71374000D03*
X114681000Y-70104000D03*
X114681000Y-68834000D03*
%TD*%
D21*
%TO.C,R64*%
X108585000Y-91789793D03*
X108585000Y-88864793D03*
%TD*%
%TO.C,R80*%
X140335000Y-91747500D03*
X140335000Y-88822500D03*
%TD*%
%TO.C,R68*%
X100965000Y-91789793D03*
X100965000Y-88864793D03*
%TD*%
M02*
